<svg xmlns="http://www.w3.org/2000/svg" xmlns:xlink="http://www.w3.org/1999/xlink" viewBox="0 0 402 268"><defs><style>.cls-1{fill:url(#New_Gradient_Swatch_19);}.cls-2{fill:url(#linear-gradient);}.cls-3{fill:#fff;}</style><linearGradient id="New_Gradient_Swatch_19" x1="0.04" y1="135.75" x2="400.04" y2="135.75" gradientUnits="userSpaceOnUse"><stop offset="0" stop-color="#cacccd"/><stop offset="1" stop-color="#fff"/></linearGradient><linearGradient id="linear-gradient" x1="24.38" y1="132.94" x2="377.48" y2="132.94" gradientUnits="userSpaceOnUse"><stop offset="0" stop-color="#008ad0"/><stop offset="1" stop-color="#005a75"/></linearGradient></defs><g id="Wider"><path class="cls-1" d="M70,268.32c-16.22-4.11-31.47-15.54-43.47-27.77A91.87,91.87,0,0,1,0,175.79,92.8,92.8,0,0,1,58.49,89.85a.8.8,0,0,0,.51-.64A74.51,74.51,0,0,1,173.33,36.88a.82.82,0,0,0,1.08-.16A92.5,92.5,0,0,1,337.86,88a.8.8,0,0,0,.54.7,92.41,92.41,0,0,1-30.77,179.55S70.07,268.34,70,268.32Z"/><path class="cls-2" d="M92,242c-37.29-.71-67.63-31.64-67.63-69a69.16,69.16,0,0,1,55-67.53,4.3,4.3,0,0,0,3.41-4.58c-.12-1.45-.18-2.9-.18-4.3a51,51,0,0,1,93.6-28.14,3.51,3.51,0,0,0,2.93,1.68,3.43,3.43,0,0,0,3.18-2.33,69,69,0,0,1,133.25,25,70.33,70.33,0,0,1-.41,7.42,4.16,4.16,0,0,0,3.54,4.58A69,69,0,0,1,308.52,242H134.4C132.85,242,93.15,242,92,242Z"/><path class="cls-3" d="M140.13,90.22h14.76q5.25,0,8,2.53c1.82,1.68,2.73,4.11,2.73,7.27a9.92,9.92,0,0,1-1,4.78A8.73,8.73,0,0,1,161.4,108a12.21,12.21,0,0,1,3.62,1.23,7.87,7.87,0,0,1,2.42,2.05,7.74,7.74,0,0,1,1.34,2.73,12.48,12.48,0,0,1,.4,3.23,11.47,11.47,0,0,1-.93,4.75,9.6,9.6,0,0,1-2.63,3.49,11.25,11.25,0,0,1-4.12,2.12,19.45,19.45,0,0,1-5.45.71H140.13Zm9.91,15h1.81q4.65,0,4.65-3.69t-4.65-3.69H150Zm0,15.46h2.17a11,11,0,0,0,5.35-1,3.75,3.75,0,0,0,0-6.17,11,11,0,0,0-5.35-1H150Z"/><path class="cls-3" d="M185,90.22v29.71h11.87v8.39H175.1V90.22Z"/><path class="cls-3" d="M211.17,90.22v20.72c0,1.11,0,2.25.13,3.41a9.11,9.11,0,0,0,.76,3.16,5.18,5.18,0,0,0,2,2.29,7,7,0,0,0,3.84.89,6.94,6.94,0,0,0,3.82-.89,5.44,5.44,0,0,0,2-2.29,9.12,9.12,0,0,0,.79-3.16c.08-1.16.12-2.3.12-3.41V90.22h9.85V112.3q0,8.9-4.06,13c-2.72,2.73-6.88,4.09-12.51,4.09s-9.8-1.36-12.53-4.09-4.09-7.06-4.09-13V90.22Z"/><path class="cls-3" d="M264.12,98.61H252.35V105h11.12v8.39H252.35v6.57h11.77v8.39H242.45V90.22h21.67Z"/><path class="cls-3" d="M156.28,163.59a10.56,10.56,0,0,0-8.49-4.2,10.37,10.37,0,0,0-4.12.81,10,10,0,0,0-3.26,2.2,10.29,10.29,0,0,0-2.15,3.31,10.89,10.89,0,0,0-.78,4.14,11,11,0,0,0,.78,4.19,10.12,10.12,0,0,0,9.48,6.37,11.5,11.5,0,0,0,8.54-4v11.72l-1,.35a29.14,29.14,0,0,1-4.25,1.19,20.75,20.75,0,0,1-3.89.38,19.92,19.92,0,0,1-13.92-5.68,20.7,20.7,0,0,1-4.42-6.42,20.58,20.58,0,0,1,0-16.17,20,20,0,0,1,4.4-6.31,20.3,20.3,0,0,1,6.39-4.15,20,20,0,0,1,7.63-1.49,20.82,20.82,0,0,1,4.47.48,27.47,27.47,0,0,1,4.63,1.49Z"/><path class="cls-3" d="M170.83,147V189h-9.15V147Z"/><path class="cls-3" d="M176.08,175.76a12.69,12.69,0,0,1,1.16-5.38,13.28,13.28,0,0,1,3.24-4.34,15.42,15.42,0,0,1,4.92-2.91,17.77,17.77,0,0,1,6.24-1.06,18,18,0,0,1,6.19,1,15.29,15.29,0,0,1,5,2.88,12.93,12.93,0,0,1,3.25,4.39,13.36,13.36,0,0,1,1.17,5.64,13.14,13.14,0,0,1-4.45,10,14.51,14.51,0,0,1-5,2.86,19.07,19.07,0,0,1-6.29,1,18.26,18.26,0,0,1-6.16-1,14.15,14.15,0,0,1-4.88-2.88,13.58,13.58,0,0,1-3.21-4.47A14.15,14.15,0,0,1,176.08,175.76Zm9.65.1a5.85,5.85,0,0,0,.48,2.4,6.27,6.27,0,0,0,1.27,1.9,5.47,5.47,0,0,0,1.86,1.26,6,6,0,0,0,2.3.46,5.94,5.94,0,0,0,2.3-.46,5.42,5.42,0,0,0,1.87-1.26,6.65,6.65,0,0,0,1.27-1.9,5.71,5.71,0,0,0,.48-2.35,5.6,5.6,0,0,0-.48-2.29,6.65,6.65,0,0,0-1.27-1.9,5.42,5.42,0,0,0-1.87-1.26,5.76,5.76,0,0,0-2.3-.46,5.83,5.83,0,0,0-2.3.46,5.47,5.47,0,0,0-1.86,1.26,6.38,6.38,0,0,0-1.27,1.87A5.47,5.47,0,0,0,185.73,175.86Z"/><path class="cls-3" d="M221.61,163v14.6c0,3.2,1.54,4.8,4.64,4.8s4.65-1.6,4.65-4.8V163h9.15V179.4c0,3.5-1.16,6.13-3.46,7.88s-5.76,2.63-10.34,2.63-8-.88-10.33-2.63-3.46-4.38-3.46-7.88V163Z"/><path class="cls-3" d="M266.27,147h9.2V189h-9.2v-2.88a9.59,9.59,0,0,1-7.93,3.69,12.77,12.77,0,0,1-5.21-1.06,13,13,0,0,1-4.14-2.93,13.27,13.27,0,0,1-2.75-4.4,15.43,15.43,0,0,1-.05-10.74,13.2,13.2,0,0,1,2.65-4.37,12.61,12.61,0,0,1,9.4-4,10.54,10.54,0,0,1,8,3.39Zm-11.52,28.9a6,6,0,0,0,.45,2.35,6.19,6.19,0,0,0,1.24,1.9,5.51,5.51,0,0,0,1.87,1.26,6.12,6.12,0,0,0,2.35.46,5.94,5.94,0,0,0,2.3-.46,5.51,5.51,0,0,0,1.87-1.26,6.55,6.55,0,0,0,1.26-1.87,5.47,5.47,0,0,0,.48-2.27,5.61,5.61,0,0,0-.48-2.3,6.43,6.43,0,0,0-1.26-1.9,5.51,5.51,0,0,0-1.87-1.26,6,6,0,0,0-4.6,0,5.51,5.51,0,0,0-1.87,1.26,6.73,6.73,0,0,0-1.26,1.85A5.27,5.27,0,0,0,254.75,175.91Z"/></g></svg>