<svg xmlns="http://www.w3.org/2000/svg" viewBox="0 0 290 300"><defs><style>.cls-1{fill:#e65cf9;}.cls-2{fill:#1a1a1a;}.cls-3{fill:#eec9a5;}.cls-4{fill:#e2ba93;}.cls-5{opacity:0.2;}.cls-6{fill:#1b1464;}.cls-7{fill:#0f0b39;}.cls-8{fill:#544f8a;}.cls-9{fill:#716c9d;}.cls-10{fill:#333;}</style></defs><g id="Wider"><rect id="Rectangle_1619" data-name="Rectangle 1619" class="cls-1" y="0.44" width="290" height="300"/><path id="Path_7063" data-name="Path 7063" d="M188.22,107s-55.06,69.5-27.33,91.71S188.22,157,188.22,157Z"/><path id="Path_7064" data-name="Path 7064" class="cls-2" d="M102.48,111.49s55.07,69.5,27.33,91.71-27.33-41.7-27.33-41.7Z"/><path id="Path_7065" data-name="Path 7065" class="cls-3" d="M103.3,203.2a155.56,155.56,0,0,1,23.19-5.13c11.74-1.53,6.43-10.9.68-22s-.68-24.82-.68-24.82l21.44,38.11V241S95.36,233.29,103.3,203.2Z"/><path id="Path_7066" data-name="Path 7066" class="cls-4" d="M192.56,203.2a155.56,155.56,0,0,0-23.19-5.13c-11.74-1.53-6.42-10.9-.68-22s.68-24.82.68-24.82l-21.44,38.11V241S200.5,233.29,192.56,203.2Z"/><g id="Group_1127" data-name="Group 1127" class="cls-5"><path id="Path_7067" data-name="Path 7067" d="M192.57,203.2a156,156,0,0,0-23.2-5.13c-11.74-1.53-6.42-10.9-.67-22s.67-24.82.67-24.82l-21.44,38.11-10-17.75-2.82,11.87,49.63,42.68C191.22,220.58,195.18,213.11,192.57,203.2Z"/></g><g id="Group_1128" data-name="Group 1128"><path id="Path_7068" data-name="Path 7068" class="cls-6" d="M108.93,230.13c-9-10.23-9-22.65-8.75-26.26-5.34,1.31-16.25,4.85-22.2,12.91-8.09,10.95-7.55,83.67-7.55,83.67h77.5V244.1C130.23,244.1,117.11,239.4,108.93,230.13Z"/></g><g id="Group_1129" data-name="Group 1129"><path id="Path_7069" data-name="Path 7069" class="cls-7" d="M217.88,216.78c-5.95-8.06-16.86-11.6-22.19-12.92.23,3.63.27,16-8.76,26.27-8.18,9.27-21.3,14-39,14h0v56.35h77.5S226,227.72,217.88,216.78Z"/></g><g id="Group_1130" data-name="Group 1130"><path id="Path_7070" data-name="Path 7070" class="cls-8" d="M180.49,294.85l-7.27-.83-1.45-7.17-3,6.66-7.27-.83,5.39,4.94-1.29,2.83h9l-.41-2Z"/><path id="Path_7071" data-name="Path 7071" class="cls-8" d="M191.85,260l-6.61,3.15-5-5.32.95,7.26-6.61,3.14,7.19,1.34.95,7.26,3.5-6.43,7.19,1.34-5-5.31Z"/><path id="Path_7072" data-name="Path 7072" class="cls-8" d="M170.87,242l6,4.12-2.47-6.89.34-.26a48.86,48.86,0,0,1-8.38,3l-1.33,4.53Z"/><path id="Path_7073" data-name="Path 7073" class="cls-8" d="M218.61,291.85l-6.15,4-5.68-4.62,1.87,7.07-3.39,2.18h12.88L216,298.68Z"/><path id="Path_7074" data-name="Path 7074" class="cls-8" d="M218.5,255l1.87,7.07-6.15,4,7.3.41,1.87,7.07,1.57-4c-.12-3.3-.26-6.69-.43-10.11l-.36.23Z"/><path id="Path_7075" data-name="Path 7075" class="cls-8" d="M204.47,224.29l-2.9,6.71-7.29-.68,5.49,4.83-2.9,6.72,6.3-3.72,5.49,4.84-1.6-7.15,6.29-3.72-7.28-.68Z"/><path id="Path_7076" data-name="Path 7076" class="cls-8" d="M150.58,266.52l6.71-2.93L150.14,262l-.71-7.28-1.5,2.54V270l3.37,3.79Z"/></g><g id="Group_1131" data-name="Group 1131"><path id="Path_7077" data-name="Path 7077" class="cls-9" d="M113.56,226.14c-8.65-9.75-7.24-22.44-7.23-22.56l-6.06-.76c-.08.63-1.8,15.45,8.66,27.3,8.18,9.28,21.3,14,39,14V238C132.1,238,120.54,234,113.56,226.14Z"/><path id="Path_7078" data-name="Path 7078" class="cls-8" d="M195.6,202.82l-6.07.75c0,.13,1.42,12.82-7.23,22.57-7,7.86-18.54,11.85-34.37,11.85h0v6.1h0c17.7,0,30.82-4.69,39-14C197.4,218.27,195.67,203.45,195.6,202.82Z"/></g><g id="Group_1132" data-name="Group 1132"><path id="Path_7079" data-name="Path 7079" class="cls-9" d="M79.14,290.65l-6.41,3.51L70.46,292c0,5.19,0,8.44,0,8.44h9L76,297.26Z"/><path id="Path_7080" data-name="Path 7080" class="cls-9" d="M96.13,265.12l-1-7.26-3.49,6.44L84.48,263l5,5.3L86,274.71l6.6-3.16,5,5.3-1-7.25,6.6-3.16Z"/><path id="Path_7081" data-name="Path 7081" class="cls-9" d="M128.83,280.22l-6.55,3.28-5.14-5.21,1.1,7.23-6.54,3.28,7.22,1.19,1.09,7.24,3.37-6.5,7.22,1.19-5.14-5.21Z"/><path id="Path_7082" data-name="Path 7082" class="cls-9" d="M138.58,259.48l4.86,5.47-3.71,6.32,6.71-2.93,1.49,1.68V257.28l-2.21,3.77Z"/><path id="Path_7083" data-name="Path 7083" class="cls-9" d="M111.59,242.63l6.13,4-1.9,7.06,5.69-4.6,6.13,4L125,246.24l5.07-4.1c-.47-.12-.91-.27-1.37-.4l-5.32.27-.93-2.43c-.87-.37-1.75-.72-2.57-1.13l-1,3.8Z"/><path id="Path_7084" data-name="Path 7084" class="cls-9" d="M78.66,250.52l3.43-6.46,7.21,1.26-5.09-5.26,3.43-6.46-6.57,3.22L76,231.55l1,7.25-4.34,2.13c0,.48-.09,1-.14,1.46l5.11.9Z"/><path id="Path_7085" data-name="Path 7085" class="cls-2" d="M82.38,222.12l3.43-6.46L93,216.92l-5.09-5.26,2.27-4.27a34,34,0,0,0-10.34,7.22l1.5.26Z"/></g><g id="Group_1135" data-name="Group 1135"><g id="Group_1133" data-name="Group 1133"><path id="Path_7086" data-name="Path 7086" class="cls-3" d="M147.93,189.36c-8.57,0-16.11-9-23.83-16.24s-11.39-20.18-11.75-23.19-3-9.73-5.84-18.76-1.24-24.61,2.12-35.58,11.86-26,39.3-26Z"/><path id="Path_7087" data-name="Path 7087" class="cls-4" d="M147.93,189.36c8.74,0,16.11-9,23.83-16.24s11.4-20.18,11.75-23.19,3-9.74,5.84-18.77,1.24-24.61-2.12-35.58-11.86-26-39.3-26Z"/></g><g id="Group_1134" data-name="Group 1134"><path id="Path_7088" data-name="Path 7088" d="M95.43,187.26l-4.58-17.58S88,181.15,95.43,187.26Z"/><path id="Path_7089" data-name="Path 7089" d="M85.5,162.29s-7.9,21.4,8.4,33.12C93.9,195.41,84.73,179.36,85.5,162.29Z"/><path id="Path_7090" data-name="Path 7090" d="M165.25,79.22s11.21,35.67,15,42,6.63,9.17,8.41,12.23C188.69,133.49,189.2,100.11,165.25,79.22Z"/><path id="Path_7091" data-name="Path 7091" class="cls-10" d="M130.34,56S118,45.94,102.24,60,73,133.49,81.93,148.53c0,0-14.27,34.65,10.95,52,0,0-7.38,10.19-18.85,3.31a16,16,0,0,0,12.23,4.84s-6.37,4.17-13.25,1.7c0,0,10.7,8.24,21.66-4,0,0-8.16,14-24.21,12.74,0,0,12.74,4.08,22.68-4.84,0,0-9.94,14.78-25.48,12.74,0,0,7.64,7.39,21.15,2.55,0,0-.26,2.29-3.83,4.07,0,0,15.8-2.8,18.86-11.21l-1.27,7.65s6.11-4.08,12.23-16.31,9.17-28,3.06-41.79-8.16-37.71-7.9-49.69,5.57-21.86,16.53-37.91a150.93,150.93,0,0,0,21.44,21.45V47.68A106.46,106.46,0,0,0,130.34,56ZM85.5,162.29c-.77,17.06,8.4,33.12,8.4,33.12-16.3-11.72-8.4-33.12-8.4-33.12Zm5.35,7.39,4.58,17.58c-7.39-6.11-4.58-17.58-4.58-17.58Z"/><path id="Path_7092" data-name="Path 7092" class="cls-2" d="M224.87,219.62s-4.07-.26-9.93-5.35c0,0,5.09,2.38,12.23-3.91,0,0-6.12-.42-10.45-8.07s.51-26.75.51-26.75a33.6,33.6,0,0,1,2,22.68s9.94-13.51,3.83-40a93.82,93.82,0,0,0-8.41-59.62c-13.82-26.95-24-66.14-66.75-50.91v58.14a114.28,114.28,0,0,0,16,11.11,40.18,40.18,0,0,1-6.88-9.68s21.4,21.4,30.58,29.81c0,0-24.46,53.77-1.53,84.09a71,71,0,0,1-2.81-16.82s5.87,22.68,22.94,26.5a36.23,36.23,0,0,1-5.61-6.62s4.34,4.84,13.51,2.8a27.12,27.12,0,0,1-7.65-3.57S218,227,224.87,219.62Zm-36.18-86.13c-1.78-3.06-4.59-5.86-8.41-12.23s-15-42-15-42c23.95,20.89,23.44,54.27,23.44,54.27Z"/></g></g></g></svg>