<svg xmlns="http://www.w3.org/2000/svg" viewBox="0 0 290 350"><defs><style>.cls-1{fill:#f5ffaa;}.cls-2{fill:#4d4d4d;}.cls-3{fill:#cbcbcb;}.cls-4{fill:#b2b2b2;}.cls-5{fill:#eec9a5;}.cls-6{fill:#e2ba93;}.cls-7{fill:#989898;}.cls-8{fill:gray;}.cls-18,.cls-9{isolation:isolate;}.cls-9{opacity:0.2;}.cls-10{fill:#333;}.cls-11{fill:#39bbbe;}.cls-12{fill:#00a3a7;}.cls-13{fill:#008f92;}.cls-14{fill:#34acaf;}.cls-15{fill:#009498;}.cls-16{fill:#008083;}.cls-17{fill:#728d00;}.cls-18{font-size:28px;fill:#fff;font-family:Futura-CondensedExtraBold, Futura;font-weight:800;}.cls-19{letter-spacing:0.02em;}</style></defs><g id="Wider"><rect id="Rectangle_1623" data-name="Rectangle 1623" class="cls-1" y="0.44" width="290" height="300"/><path id="Path_6965" data-name="Path 6965" class="cls-2" d="M88.66,156.5a46.87,46.87,0,0,0-2.08,30.13c5.72,20,19.19,50,46.77,48.26l-25.44-118-19.6,22.69Z"/><g id="Group_1106" data-name="Group 1106"><path id="Path_6966" data-name="Path 6966" class="cls-3" d="M109.47,238.51c-23,5.31-37.1,8.79-40.61,17.59-5.92,14.81,0,44.35,0,44.35h64V235.72Z"/><path id="Path_6967" data-name="Path 6967" class="cls-4" d="M156.18,238.51c23,5.31,37.1,8.79,40.62,17.59,5.91,14.81,0,44.35,0,44.35h-64V235.72Z"/></g><g id="Group_1107" data-name="Group 1107"><path id="Path_6968" data-name="Path 6968" class="cls-5" d="M122.64,199.36c8.63,13.88-2.34,29.62-9.5,37.47s11.77,37.46,23.26,37.46V203.9l-3-6.36Z"/><path id="Path_6969" data-name="Path 6969" class="cls-6" d="M150.16,199.36c-8.63,13.88,2.34,29.62,9.49,37.47s-11.76,37.46-23.25,37.46V203.9l3-6.36Z"/></g><g id="Group_1108" data-name="Group 1108"><path id="Path_6970" data-name="Path 6970" class="cls-7" d="M136.4,271.4a8.93,8.93,0,0,1-4.13-1.37,28.33,28.33,0,0,1-4.26-3.19,57.11,57.11,0,0,1-7.56-8.36,58.41,58.41,0,0,1-6-9.76,26.9,26.9,0,0,1-2-5.35,9.73,9.73,0,0,1,0-5.68,9.25,9.25,0,0,0-1.61,5.86,25.38,25.38,0,0,0,.91,6.13A46.32,46.32,0,0,0,116.7,261a49.34,49.34,0,0,0,7.57,9.86,28.54,28.54,0,0,0,5.11,4.05,14.3,14.3,0,0,0,7,2.3h0V271.4Z"/><path id="Path_6971" data-name="Path 6971" class="cls-8" d="M160.28,237.69a9.65,9.65,0,0,1,0,5.68,27.5,27.5,0,0,1-2,5.35,59.41,59.41,0,0,1-6,9.75,57.11,57.11,0,0,1-7.56,8.36c-2.64,2.41-6,4.57-8.38,4.57v5.77a14.24,14.24,0,0,0,7-2.3,28.54,28.54,0,0,0,5.11-4.05A48.91,48.91,0,0,0,156.1,261,46.1,46.1,0,0,0,161,249.69a26,26,0,0,0,.91-6.13A9.35,9.35,0,0,0,160.28,237.69Z"/></g><path id="Path_6972" data-name="Path 6972" class="cls-9" d="M150.16,199.36l-10.8-1.82-3,6.36-3-6.36L124.64,199l.32,2.62,25,21.09C146.65,215.51,145.32,207.14,150.16,199.36Z"/><g id="Group_1109" data-name="Group 1109"><path id="Path_6973" data-name="Path 6973" class="cls-2" d="M133.57,276.72c-6.19,2.48-7.77,14.44,2.83,17.95V276.15A7.85,7.85,0,0,0,133.57,276.72Z"/><path id="Path_6974" data-name="Path 6974" class="cls-10" d="M222,275.66c-6-8.13-11.67-1.41-11.67-1.41,11.32-1.77,12.37,11.67,0,11s-4.05-19.17,1.25-33.31-8.67-20.79-15-29.27-5-13.79-.73-30.24S184,168.06,187,156.51c4.6-18-14.85-43.14-14.85-43.14l-28.2,76.76s1.69,16.34,0,24c-2.22,10-3.27,25.82,3.09,35s6.72,26.16,2.48,33.59-12.73,4.25-11.31.71,5.77-1.42,5.77-1.42-2.42-5.92-7.54-5.88v18.53a20.27,20.27,0,0,0,5.3.94c16.26.85,18.74-17.47,18.74-17.47,2.47,19.09,12.56,17.43,12.56,17.43-10.43-16.16,1.25-37.59,1.25-37.59-5.27,26.52,7.76,34.3,7.76,34.3a34.82,34.82,0,0,1-2.48-23.69s-1.06,20.16,20.87,25.81S228,283.8,222,275.66Z"/></g><g id="Group_1110" data-name="Group 1110"><path id="Path_6975" data-name="Path 6975" class="cls-5" d="M136.4,100.28c-24.75,0-38.54,20.86-37.83,46.68s22.63,59.76,37.83,59.76Z"/><path id="Path_6976" data-name="Path 6976" class="cls-6" d="M136.4,100.28c24.75,0,38.54,20.86,37.83,46.68s-22.62,59.75-37.83,59.75Z"/></g><path id="Path_6977" data-name="Path 6977" class="cls-11" d="M136.4,84.73c-19.8,0-42.43,15.2-48.09,29.34a58.37,58.37,0,0,0,.36,42.44S101,110.18,136.4,110.18h0Z"/><path id="Path_6978" data-name="Path 6978" class="cls-12" d="M103.77,70.59a52.68,52.68,0,0,1,15.3-8.28,55.58,55.58,0,0,1,17.08-3.1h.25V41.49c-15,2.19-36.17,16.1-36.42,20.61-.31,5.48-.36,7.84-4,17.43a23.8,23.8,0,0,1,1.65-2.68A34.22,34.22,0,0,1,103.77,70.59Z"/><path id="Path_6979" data-name="Path 6979" class="cls-12" d="M136.4,84.72h0V62.51h0a82.29,82.29,0,0,0-15.93,3.8,68.27,68.27,0,0,0-7.58,3.07,62.1,62.1,0,0,0-7.18,3.89c-4.57,2.93-8.88,6.43-11.62,11.45,0-.27.14-.52.2-.79-.11.27-.2.51-.32.79a89.78,89.78,0,0,0-5.65,29.35C94,99.93,116.6,84.72,136.4,84.72Z"/><path id="Path_6980" data-name="Path 6980" class="cls-13" d="M94.28,83.94q1-2.44,1.72-4.42A17.63,17.63,0,0,0,94.28,83.94Z"/><path id="Path_6981" data-name="Path 6981" class="cls-13" d="M105.7,73.27a65.44,65.44,0,0,1,7.18-3.89,69,69,0,0,1,7.58-3.06,82.24,82.24,0,0,1,15.94-3.81h0v-3.3h-.25a55.58,55.58,0,0,0-17.08,3.1,52.5,52.5,0,0,0-15.29,8.28,34,34,0,0,0-6.13,6.26A23.67,23.67,0,0,0,96,79.52q-.75,2-1.72,4.42c-.06.26-.15.52-.2.79C96.82,79.71,101.13,76.21,105.7,73.27Z"/><path id="Path_6982" data-name="Path 6982" class="cls-12" d="M88.31,114.07a65.88,65.88,0,0,1,1.71,8.1c.42,2.67.76,5.33,1,8s.55,5.29.76,8,.47,5.33.57,8.19a25.24,25.24,0,0,1-3.84-7.52,43,43,0,0,1-1.71-8.17,48,48,0,0,1-.14-8.3A31.67,31.67,0,0,1,88.31,114.07Z"/><path id="Path_6983" data-name="Path 6983" class="cls-12" d="M93.57,105.61c.63,2.42,1.1,4.68,1.58,6.92s.93,4.43,1.43,6.61,1,4.36,1.56,6.56,1.18,4.4,1.63,6.89A18.66,18.66,0,0,1,95,126.94a24.41,24.41,0,0,1-2.6-6.87,26.43,26.43,0,0,1-.61-7.31A18.69,18.69,0,0,1,93.57,105.61Z"/><path id="Path_6984" data-name="Path 6984" class="cls-12" d="M99.36,99.78a54.92,54.92,0,0,1,2.5,5.79c.7,1.9,1.36,3.77,2,5.63l1.93,5.56c.67,1.87,1.4,3.69,2.13,5.84a13.7,13.7,0,0,1-5.05-4.23,21.89,21.89,0,0,1-3-5.79,24.47,24.47,0,0,1-1.23-6.34A17.25,17.25,0,0,1,99.36,99.78Z"/><path id="Path_6985" data-name="Path 6985" class="cls-12" d="M107.89,93.58c.76,2.08,1.39,4,2,5.82s1.26,3.65,1.95,5.42,1.37,3.55,2.16,5.33,1.62,3.59,2.35,5.71a14.56,14.56,0,0,1-5.17-3.93,18.39,18.39,0,0,1-3.31-5.61,18.94,18.94,0,0,1-1.26-6.36A13.62,13.62,0,0,1,107.89,93.58Z"/><path id="Path_6986" data-name="Path 6986" class="cls-12" d="M116.39,89.2c.94,2,1.66,3.89,2.36,5.78l2,5.57,1.87,5.58a61.64,61.64,0,0,1,1.7,6,15.87,15.87,0,0,1-4.67-4.49,21.71,21.71,0,0,1-2.91-5.74,22.2,22.2,0,0,1-1.22-6.29A15.74,15.74,0,0,1,116.39,89.2Z"/><path id="Path_6987" data-name="Path 6987" class="cls-12" d="M128.68,85.44c.31,2.28.7,4.31,1.08,6.34s.82,4,1.25,6l1.32,6c.2,1,.45,2.06.6,3.15a24.84,24.84,0,0,1,.42,3.33,21.13,21.13,0,0,1-2.33-2.49A27.82,27.82,0,0,1,129.2,105a24.36,24.36,0,0,1-2.33-6.3,22.07,22.07,0,0,1-.43-6.78A13.06,13.06,0,0,1,128.68,85.44Z"/><g id="Group_1111" data-name="Group 1111"><path id="Path_6988" data-name="Path 6988" class="cls-14" d="M187,113.72c-11.31-22.28-30.76-29-50.56-29v25.46c35.36,0,49.5,35.36,50.56,46.32C187,156.5,198.28,136,187,113.72Z"/><path id="Path_6989" data-name="Path 6989" class="cls-15" d="M153,62.45a62.42,62.42,0,0,0-16.61.06V84.73c19.8,0,39.25,6.71,50.56,29,.37.71.71,1.43,1,2.14h0c1-18.73-12-39.27-20.46-44.93s-10.26-9.19-17.68-24.75c-2.16-4.53-7.28-5.6-13.44-4.7V59.21A36.93,36.93,0,0,1,153,62.45Z"/><path id="Path_6990" data-name="Path 6990" class="cls-16" d="M153,62.45a37,37,0,0,0-16.61-3.24v3.3A62.42,62.42,0,0,1,153,62.45Z"/><path id="Path_6991" data-name="Path 6991" class="cls-15" d="M140.85,84.85a16.83,16.83,0,0,1,2.52,6.24,27.32,27.32,0,0,1,.51,6.63,27.9,27.9,0,0,1-1.11,6.53,20.08,20.08,0,0,1-2.89,6,43.36,43.36,0,0,1-.41-6.54c0-2.11,0-4.18.17-6.24s.24-4.13.42-6.21S140.48,87.11,140.85,84.85Z"/><path id="Path_6992" data-name="Path 6992" class="cls-15" d="M152.85,86.52a14.2,14.2,0,0,1,2.87,6.34,22.21,22.21,0,0,1,.27,7,23,23,0,0,1-1.86,6.66,17.93,17.93,0,0,1-3.95,5.67,29.84,29.84,0,0,1,.32-3.4c.09-1.11.33-2.15.43-3.22.34-2.1.56-4.17.85-6.22s.45-4.11.62-6.21S152.72,88.86,152.85,86.52Z"/><path id="Path_6993" data-name="Path 6993" class="cls-15" d="M163.21,90.06a14.79,14.79,0,0,1,3.09,6.5,19.33,19.33,0,0,1,.21,7.27,18.16,18.16,0,0,1-2.48,6.86,15.26,15.26,0,0,1-5,5.17c.63-2.38,1.44-4.41,1.95-6.51a48.24,48.24,0,0,0,1.34-6.18,58.19,58.19,0,0,0,.67-6.31C163.12,94.68,163.16,92.48,163.21,90.06Z"/><path id="Path_6994" data-name="Path 6994" class="cls-15" d="M174.72,97.57a11.91,11.91,0,0,1,3.1,6.58,17.47,17.47,0,0,1-.49,7.4,19.6,19.6,0,0,1-3.42,6.48,21.94,21.94,0,0,1-2.52,2.58,20.23,20.23,0,0,1-3,2,32,32,0,0,1,1.38-3.25c.4-1.07.93-2,1.32-3a63,63,0,0,0,2.2-5.93,39.74,39.74,0,0,0,1.24-6.1A38.36,38.36,0,0,0,174.72,97.57Z"/><path id="Path_6995" data-name="Path 6995" class="cls-15" d="M185,110.08a13,13,0,0,1,1.87,6.2,15.38,15.38,0,0,1-1.07,6.57,12.28,12.28,0,0,1-4.2,5.38,10.06,10.06,0,0,1-6.29,2,35.91,35.91,0,0,0,4-4.37,20.26,20.26,0,0,0,2.58-4.58,41.32,41.32,0,0,0,1.67-5.23Z"/><path id="Path_6996" data-name="Path 6996" class="cls-15" d="M191.18,126a8.49,8.49,0,0,1,.48,4.88,11.29,11.29,0,0,1-1.88,4.51,10.54,10.54,0,0,1-3.65,3.31,8.27,8.27,0,0,1-4.79,1.08c.93-1.46,1.86-2.51,2.65-3.64s1.57-2.12,2.31-3.18l2.26-3.27C189.34,128.57,190.14,127.38,191.18,126Z"/><path id="Path_6997" data-name="Path 6997" class="cls-15" d="M191.18,143.59A4.09,4.09,0,0,1,191,146a5.4,5.4,0,0,1-1.28,1.91,4.53,4.53,0,0,1-4.42,1.26,11.76,11.76,0,0,1,1.21-1.9,11.91,11.91,0,0,1,2.71-2.59A11.7,11.7,0,0,1,191.18,143.59Z"/></g><rect id="Rectangle_1622" data-name="Rectangle 1622" class="cls-17" y="300" width="290" height="50"/><text class="cls-18" transform="translate(100.16 332.98)">En<tspan class="cls-19" x="28.56" y="0">g</tspan><tspan x="44.61" y="0">lish</tspan></text></g></svg>