<svg xmlns="http://www.w3.org/2000/svg" xmlns:xlink="http://www.w3.org/1999/xlink" viewBox="0 0 401 267"><defs><style>.cls-1{fill:url(#New_Gradient_Swatch_19);}.cls-2{fill:url(#linear-gradient);}.cls-3{fill:#fff;}</style><linearGradient id="New_Gradient_Swatch_19" x1="1.04" y1="132.75" x2="401.04" y2="132.75" gradientUnits="userSpaceOnUse"><stop offset="0" stop-color="#cacccd"/><stop offset="1" stop-color="#fff"/></linearGradient><linearGradient id="linear-gradient" x1="25.38" y1="129.94" x2="378.48" y2="129.94" gradientUnits="userSpaceOnUse"><stop offset="0" stop-color="#73b234"/><stop offset="1" stop-color="#00682f"/></linearGradient></defs><g id="Wider"><path class="cls-1" d="M71,265.32c-16.22-4.11-31.47-15.54-43.47-27.77A91.87,91.87,0,0,1,1,172.79,92.8,92.8,0,0,1,59.49,86.85a.8.8,0,0,0,.51-.64A74.51,74.51,0,0,1,174.33,33.88a.82.82,0,0,0,1.08-.16A92.5,92.5,0,0,1,338.86,85a.8.8,0,0,0,.54.7,92.41,92.41,0,0,1-30.77,179.55S71.07,265.34,71,265.32Z"/><path class="cls-2" d="M93,239c-37.29-.71-67.63-31.64-67.63-69a69.16,69.16,0,0,1,55-67.53,4.3,4.3,0,0,0,3.41-4.58c-.12-1.45-.18-2.9-.18-4.3a51,51,0,0,1,93.6-28.14,3.51,3.51,0,0,0,2.93,1.68,3.43,3.43,0,0,0,3.18-2.33,69,69,0,0,1,133.25,25,70.33,70.33,0,0,1-.41,7.42,4.16,4.16,0,0,0,3.54,4.58A69,69,0,0,1,309.52,239H135.4C133.85,239,94.15,239,93,239Z"/><path class="cls-3" d="M130.18,128.1h19.66a53.87,53.87,0,0,1-.26,5.5,18.86,18.86,0,0,1-1,4.6,17.94,17.94,0,0,1-2.88,5.28,16.8,16.8,0,0,1-4.27,3.84,19.88,19.88,0,0,1-5.38,2.35,23,23,0,0,1-6.16.81,21.6,21.6,0,0,1-8.11-1.47,18.31,18.31,0,0,1-6.29-4.11,18.56,18.56,0,0,1-4.09-6.37,22.13,22.13,0,0,1-1.47-8.21,22.38,22.38,0,0,1,1.44-8.16,18,18,0,0,1,4.09-6.34,18.5,18.5,0,0,1,6.4-4.09,22.59,22.59,0,0,1,8.33-1.47,20.64,20.64,0,0,1,10.46,2.58,17.86,17.86,0,0,1,7.13,8l-9.4,3.89a9.58,9.58,0,0,0-3.41-4.5,8.56,8.56,0,0,0-4.78-1.36,9.66,9.66,0,0,0-4,.83,8.83,8.83,0,0,0-3.11,2.38,11.4,11.4,0,0,0-2,3.71,15.1,15.1,0,0,0-.73,4.85,15.39,15.39,0,0,0,.63,4.5,10,10,0,0,0,1.9,3.59,8.54,8.54,0,0,0,3.13,2.35,10.63,10.63,0,0,0,4.34.83,12,12,0,0,0,2.83-.33,7.41,7.41,0,0,0,2.45-1.06,6,6,0,0,0,1.8-1.89,7.68,7.68,0,0,0,1-2.83h-8.14Z"/><path class="cls-3" d="M187.78,149.42H175.45L166,134.77v14.65H156.1v-38.1h15.41a15,15,0,0,1,5.56.94,10.43,10.43,0,0,1,6.24,6.29,13,13,0,0,1,.78,4.54,11.22,11.22,0,0,1-2.09,7,10.58,10.58,0,0,1-6.19,3.67ZM166,128.35h1.86a7.26,7.26,0,0,0,4.5-1.21,4.66,4.66,0,0,0,0-7,7.2,7.2,0,0,0-4.5-1.21H166Z"/><path class="cls-3" d="M213.6,119.71H201.83v6.36h11.11v8.39H201.83V141H213.6v8.39H191.93v-38.1H213.6Z"/><path class="cls-3" d="M242.4,119.71H230.63v6.36h11.11v8.39H230.63V141H242.4v8.39H220.73v-38.1H242.4Z"/><path class="cls-3" d="M249.52,149.42v-38.1h9.91l18.29,23.29V111.32h9.85v38.1h-9.85l-18.29-23.29v23.29Z"/><path class="cls-3" d="M154.18,184.69a10.56,10.56,0,0,0-8.49-4.2,10.32,10.32,0,0,0-4.11.81,9.89,9.89,0,0,0-5.41,5.51,10.89,10.89,0,0,0-.78,4.14,11,11,0,0,0,.78,4.19,10.25,10.25,0,0,0,2.17,3.34,10.36,10.36,0,0,0,3.26,2.22,10.09,10.09,0,0,0,4,.81,11.47,11.47,0,0,0,8.54-4v11.72l-1,.35a28.69,28.69,0,0,1-4.24,1.19,20.83,20.83,0,0,1-3.89.38,19.87,19.87,0,0,1-13.92-5.68A20.7,20.7,0,0,1,126.7,199a20.58,20.58,0,0,1,0-16.17,20.12,20.12,0,0,1,18.42-12,21,21,0,0,1,4.47.48,27.09,27.09,0,0,1,4.62,1.49Z"/><path class="cls-3" d="M168.73,168.11v41.94h-9.14V168.11Z"/><path class="cls-3" d="M174,196.86a12.69,12.69,0,0,1,1.16-5.38,13.11,13.11,0,0,1,3.23-4.34,15.58,15.58,0,0,1,4.93-2.91,17.69,17.69,0,0,1,6.24-1.06,18,18,0,0,1,6.19,1,15.35,15.35,0,0,1,4.95,2.88,12.83,12.83,0,0,1,3.26,4.39,13.36,13.36,0,0,1,1.16,5.64,13.2,13.2,0,0,1-1.18,5.63,13.5,13.5,0,0,1-3.26,4.39,14.51,14.51,0,0,1-5,2.86,19.12,19.12,0,0,1-6.29,1,18.36,18.36,0,0,1-6.17-1,14.11,14.11,0,0,1-4.87-2.88,13.3,13.3,0,0,1-3.21-4.47A14.15,14.15,0,0,1,174,196.86Zm9.65.1a5.85,5.85,0,0,0,.48,2.4,6.43,6.43,0,0,0,1.26,1.9,5.51,5.51,0,0,0,1.87,1.26,6,6,0,0,0,4.6,0,5.51,5.51,0,0,0,1.87-1.26,6.43,6.43,0,0,0,1.26-1.9,5.87,5.87,0,0,0,0-4.65,6.51,6.51,0,0,0-1.26-1.89,5.51,5.51,0,0,0-1.87-1.26,6,6,0,0,0-4.6,0,5.51,5.51,0,0,0-1.87,1.26,6.55,6.55,0,0,0-1.26,1.87A5.44,5.44,0,0,0,183.64,197Z"/><path class="cls-3" d="M219.51,184.13v14.6q0,4.8,4.65,4.8t4.65-4.8v-14.6H238V200.5q0,5.25-3.47,7.88T224.16,211q-6.87,0-10.33-2.63t-3.46-7.88V184.13Z"/><path class="cls-3" d="M264.18,168.11h9.19v41.94h-9.19v-2.88a9.61,9.61,0,0,1-7.94,3.69,12.72,12.72,0,0,1-5.2-1.06,13,13,0,0,1-4.14-2.93,13.57,13.57,0,0,1-2.76-4.4,15.58,15.58,0,0,1,0-10.74,13.39,13.39,0,0,1,2.66-4.37,12.56,12.56,0,0,1,9.39-4,10.57,10.57,0,0,1,8,3.39ZM252.66,197a6,6,0,0,0,.45,2.35,6.19,6.19,0,0,0,1.24,1.9,5.42,5.42,0,0,0,1.87,1.26,6.08,6.08,0,0,0,2.35.46,6,6,0,0,0,2.3-.46,5.61,5.61,0,0,0,1.87-1.26,6.55,6.55,0,0,0,1.26-1.87,5.47,5.47,0,0,0,.48-2.27,5.61,5.61,0,0,0-.48-2.3,6.43,6.43,0,0,0-1.26-1.9,5.61,5.61,0,0,0-1.87-1.26,6,6,0,0,0-4.6,0,5.51,5.51,0,0,0-1.87,1.26,6.73,6.73,0,0,0-1.26,1.85A5.27,5.27,0,0,0,252.66,197Z"/></g></svg>