<svg xmlns="http://www.w3.org/2000/svg" xmlns:xlink="http://www.w3.org/1999/xlink" viewBox="0 0 401 316"><defs><style>.cls-1{fill:url(#New_Gradient_Swatch_19);}.cls-2{fill:url(#linear-gradient);}.cls-3{fill:#fff;}</style><linearGradient id="New_Gradient_Swatch_19" x1="1.35" y1="159.51" x2="401.35" y2="159.51" gradientUnits="userSpaceOnUse"><stop offset="0" stop-color="#cacccd"/><stop offset="1" stop-color="#fff"/></linearGradient><linearGradient id="linear-gradient" x1="25.69" y1="155.05" x2="378.8" y2="155.05" gradientUnits="userSpaceOnUse"><stop offset="0" stop-color="#73b234"/><stop offset="1" stop-color="#00682f"/></linearGradient></defs><g id="Wider"><path class="cls-1" d="M88.82,315.87a20.9,20.9,0,0,1-20.76-23.26l3-27.24a92.51,92.51,0,0,1-69.66-89.6,92.8,92.8,0,0,1,58.9-86.12,74.52,74.52,0,0,1,115-52.39,92.5,92.5,0,0,1,164,51.2,92.41,92.41,0,0,1-30.27,179.72H142.83c-4.67,5.33-11.42,13-18,20.2C104.63,310.62,99.46,315.87,88.82,315.87Z"/><path class="cls-2" d="M97.25,246.4A4,4,0,0,0,93.33,242c-37.3-.7-67.64-31.63-67.64-69a69.17,69.17,0,0,1,55-67.54,4.29,4.29,0,0,0,3.42-4.57C84,99.45,84,98,84,96.6a51,51,0,0,1,93.6-28.14,3.55,3.55,0,0,0,2.93,1.68,3.45,3.45,0,0,0,3.18-2.33,69,69,0,0,1,133.26,25,67.67,67.67,0,0,1-.42,7.42,4.17,4.17,0,0,0,3.55,4.59A69,69,0,0,1,309.83,242H135.71a6.19,6.19,0,0,0-4.36,2c-17.17,19.71-31.5,35.46-38.43,42.29Z"/><path class="cls-3" d="M132.18,137.1h19.66a53.87,53.87,0,0,1-.26,5.5,18.86,18.86,0,0,1-1,4.6,17.94,17.94,0,0,1-2.88,5.28,16.8,16.8,0,0,1-4.27,3.84,19.88,19.88,0,0,1-5.38,2.35,23,23,0,0,1-6.16.81,21.6,21.6,0,0,1-8.11-1.47,18.31,18.31,0,0,1-6.29-4.11,18.56,18.56,0,0,1-4.09-6.37,22.13,22.13,0,0,1-1.47-8.21,22.38,22.38,0,0,1,1.44-8.16,18,18,0,0,1,4.09-6.34,18.5,18.5,0,0,1,6.4-4.09,22.59,22.59,0,0,1,8.33-1.47,20.64,20.64,0,0,1,10.46,2.58,17.86,17.86,0,0,1,7.13,8l-9.4,3.89a9.58,9.58,0,0,0-3.41-4.5,8.56,8.56,0,0,0-4.78-1.36,9.66,9.66,0,0,0-4,.83,8.83,8.83,0,0,0-3.11,2.38,11.4,11.4,0,0,0-2,3.71,15.1,15.1,0,0,0-.73,4.85,15.39,15.39,0,0,0,.63,4.5,10,10,0,0,0,1.9,3.59,8.54,8.54,0,0,0,3.13,2.35,10.63,10.63,0,0,0,4.34.83,12,12,0,0,0,2.83-.33,7.41,7.41,0,0,0,2.45-1.06,6,6,0,0,0,1.8-1.89,7.68,7.68,0,0,0,1-2.83h-8.14Z"/><path class="cls-3" d="M189.78,158.42H177.45L168,143.77v14.65H158.1v-38.1h15.41a15,15,0,0,1,5.56.94,10.43,10.43,0,0,1,6.24,6.29,13,13,0,0,1,.78,4.54,11.22,11.22,0,0,1-2.09,7,10.58,10.58,0,0,1-6.19,3.67ZM168,137.35h1.86a7.26,7.26,0,0,0,4.5-1.21,4.66,4.66,0,0,0,0-7,7.2,7.2,0,0,0-4.5-1.21H168Z"/><path class="cls-3" d="M215.6,128.71H203.83v6.36h11.11v8.39H203.83V150H215.6v8.39H193.93v-38.1H215.6Z"/><path class="cls-3" d="M244.4,128.71H232.63v6.36h11.11v8.39H232.63V150H244.4v8.39H222.73v-38.1H244.4Z"/><path class="cls-3" d="M251.52,158.42v-38.1h9.91l18.29,23.29V120.32h9.85v38.1h-9.85l-18.29-23.29v23.29Z"/><path class="cls-3" d="M156.18,193.69a10.56,10.56,0,0,0-8.49-4.2,10.32,10.32,0,0,0-4.11.81,9.89,9.89,0,0,0-5.41,5.51,10.89,10.89,0,0,0-.78,4.14,11,11,0,0,0,.78,4.19,10.25,10.25,0,0,0,2.17,3.34,10.36,10.36,0,0,0,3.26,2.22,10.09,10.09,0,0,0,4,.81,11.47,11.47,0,0,0,8.54-4v11.72l-1,.35a28.69,28.69,0,0,1-4.24,1.19,20.83,20.83,0,0,1-3.89.38,19.87,19.87,0,0,1-13.92-5.68A20.7,20.7,0,0,1,128.7,208a20.58,20.58,0,0,1,0-16.17,20.12,20.12,0,0,1,18.42-12,21,21,0,0,1,4.47.48,27.09,27.09,0,0,1,4.62,1.49Z"/><path class="cls-3" d="M170.73,177.11v41.94h-9.14V177.11Z"/><path class="cls-3" d="M176,205.86a12.69,12.69,0,0,1,1.16-5.38,13.11,13.11,0,0,1,3.23-4.34,15.58,15.58,0,0,1,4.93-2.91,17.69,17.69,0,0,1,6.24-1.06,18,18,0,0,1,6.19,1,15.35,15.35,0,0,1,4.95,2.88,12.83,12.83,0,0,1,3.26,4.39,13.36,13.36,0,0,1,1.16,5.64,13.2,13.2,0,0,1-1.18,5.63,13.5,13.5,0,0,1-3.26,4.39,14.51,14.51,0,0,1-5,2.86,19.12,19.12,0,0,1-6.29,1,18.36,18.36,0,0,1-6.17-1,14.11,14.11,0,0,1-4.87-2.88,13.3,13.3,0,0,1-3.21-4.47A14.15,14.15,0,0,1,176,205.86Zm9.65.1a5.85,5.85,0,0,0,.48,2.4,6.43,6.43,0,0,0,1.26,1.9,5.51,5.51,0,0,0,1.87,1.26,6,6,0,0,0,4.6,0,5.51,5.51,0,0,0,1.87-1.26,6.43,6.43,0,0,0,1.26-1.9,5.87,5.87,0,0,0,0-4.65,6.51,6.51,0,0,0-1.26-1.89,5.51,5.51,0,0,0-1.87-1.26,6,6,0,0,0-4.6,0,5.51,5.51,0,0,0-1.87,1.26,6.55,6.55,0,0,0-1.26,1.87A5.44,5.44,0,0,0,185.64,206Z"/><path class="cls-3" d="M221.51,193.13v14.6q0,4.8,4.65,4.8t4.65-4.8v-14.6H240V209.5q0,5.25-3.47,7.88T226.16,220q-6.87,0-10.33-2.63t-3.46-7.88V193.13Z"/><path class="cls-3" d="M266.18,177.11h9.19v41.94h-9.19v-2.88a9.61,9.61,0,0,1-7.94,3.69,12.72,12.72,0,0,1-5.2-1.06,13,13,0,0,1-4.14-2.93,13.57,13.57,0,0,1-2.76-4.4,15.58,15.58,0,0,1,0-10.74,13.39,13.39,0,0,1,2.66-4.37,12.56,12.56,0,0,1,9.39-4,10.57,10.57,0,0,1,8,3.39ZM254.66,206a6,6,0,0,0,.45,2.35,6.19,6.19,0,0,0,1.24,1.9,5.42,5.42,0,0,0,1.87,1.26,6.08,6.08,0,0,0,2.35.46,6,6,0,0,0,2.3-.46,5.61,5.61,0,0,0,1.87-1.26,6.55,6.55,0,0,0,1.26-1.87,5.47,5.47,0,0,0,.48-2.27,5.61,5.61,0,0,0-.48-2.3,6.43,6.43,0,0,0-1.26-1.9,5.61,5.61,0,0,0-1.87-1.26,6,6,0,0,0-4.6,0,5.51,5.51,0,0,0-1.87,1.26,6.73,6.73,0,0,0-1.26,1.85A5.27,5.27,0,0,0,254.66,206Z"/></g></svg>