<svg xmlns="http://www.w3.org/2000/svg" xmlns:xlink="http://www.w3.org/1999/xlink" viewBox="0 0 408 316"><defs><style>.cls-1{fill:url(#New_Gradient_Swatch_19);}.cls-2{fill:url(#linear-gradient);}.cls-3{fill:#fff;}</style><linearGradient id="New_Gradient_Swatch_19" x1="2.04" y1="158.21" x2="402.04" y2="158.21" gradientUnits="userSpaceOnUse"><stop offset="0" stop-color="#cacccd"/><stop offset="1" stop-color="#fff"/></linearGradient><linearGradient id="linear-gradient" x1="26.38" y1="153.75" x2="379.48" y2="153.75" gradientUnits="userSpaceOnUse"><stop offset="0" stop-color="#f5812a"/><stop offset="1" stop-color="#dc2b2b"/></linearGradient></defs><g id="Wider"><path class="cls-1" d="M89.51,314.57a20.9,20.9,0,0,1-20.77-23.25l3-27.25A92.43,92.43,0,0,1,60.94,88.36,74.5,74.5,0,0,1,176,36a92.49,92.49,0,0,1,164,51.2,92.4,92.4,0,0,1-30.27,179.71H143.52c-4.68,5.33-11.42,13-18,20.2C105.32,309.32,100.15,314.57,89.51,314.57Z"/><path class="cls-2" d="M97.94,245.11A4,4,0,0,0,94,240.67c-37.29-.71-67.63-31.64-67.63-69a69.17,69.17,0,0,1,55-67.54,4.28,4.28,0,0,0,3.41-4.57c-.12-1.45-.18-2.9-.18-4.3a51,51,0,0,1,93.6-28.14,3.51,3.51,0,0,0,2.93,1.68,3.43,3.43,0,0,0,3.18-2.33,69,69,0,0,1,133.25,25,70,70,0,0,1-.41,7.42,4.16,4.16,0,0,0,3.54,4.59,69,69,0,0,1-10.22,137.16H136.4a6.26,6.26,0,0,0-4.37,2c-17.16,19.71-31.49,35.46-38.42,42.29Z"/><path class="cls-3" d="M74.87,139.16A19.64,19.64,0,0,1,87.42,120.6a24.26,24.26,0,0,1,17,0,20,20,0,0,1,6.69,4.27,19.39,19.39,0,0,1,4.37,6.39,20.69,20.69,0,0,1,0,15.81,19.49,19.49,0,0,1-4.37,6.39,20,20,0,0,1-6.69,4.27,24.26,24.26,0,0,1-17,0,19.58,19.58,0,0,1-11-10.66A20,20,0,0,1,74.87,139.16Zm10.36,0a10.05,10.05,0,0,0,.86,4.2,10.49,10.49,0,0,0,5.73,5.53,11.27,11.27,0,0,0,8.24,0,10.66,10.66,0,0,0,3.43-2.2,10.37,10.37,0,0,0,2.35-3.33,10.66,10.66,0,0,0,0-8.39,10.37,10.37,0,0,0-2.35-3.33,10.66,10.66,0,0,0-3.43-2.2,11.27,11.27,0,0,0-8.24,0A10.49,10.49,0,0,0,86.09,135,10,10,0,0,0,85.23,139.16Z"/><path class="cls-3" d="M155,158.21H142.67l-9.44-14.65v14.65h-9.91V120.12h15.41a15.2,15.2,0,0,1,5.56.93,10.75,10.75,0,0,1,3.92,2.55,10.89,10.89,0,0,1,2.32,3.74,13.1,13.1,0,0,1,.78,4.55,11.22,11.22,0,0,1-2.09,7.05A10.57,10.57,0,0,1,143,142.6Zm-21.77-21.07h1.87a7.19,7.19,0,0,0,4.49-1.21,4.65,4.65,0,0,0,0-7,7.19,7.19,0,0,0-4.49-1.21h-1.87Z"/><path class="cls-3" d="M182.49,151.59H168.34l-2.27,6.62H155.51L170,120.12h10.81l14.5,38.09H184.76Zm-2.63-7.52-4.45-12.69L171,144.07Z"/><path class="cls-3" d="M199.67,158.21V120.12h9.9l18.29,23.29V120.12h9.85v38.09h-9.85l-18.29-23.29v23.29Z"/><path class="cls-3" d="M265,136.89H284.6a54.25,54.25,0,0,1-.25,5.51,20,20,0,0,1-1,4.6,18.68,18.68,0,0,1-2.88,5.28,17,17,0,0,1-4.27,3.84,20.48,20.48,0,0,1-5.38,2.35,23.5,23.5,0,0,1-6.17.8,21.64,21.64,0,0,1-8.11-1.46,18.33,18.33,0,0,1-6.29-4.12,18.71,18.71,0,0,1-4.09-6.37,22.09,22.09,0,0,1-1.46-8.21,22.42,22.42,0,0,1,1.44-8.16,17.91,17.91,0,0,1,4.09-6.34,18.7,18.7,0,0,1,6.39-4.09,22.6,22.6,0,0,1,8.34-1.46,20.66,20.66,0,0,1,10.46,2.57,17.87,17.87,0,0,1,7.12,8l-9.4,3.89a9.51,9.51,0,0,0-3.41-4.5,8.56,8.56,0,0,0-4.77-1.37,9.48,9.48,0,0,0-4,.84,8.72,8.72,0,0,0-3.11,2.37,11.27,11.27,0,0,0-2,3.72,16.17,16.17,0,0,0-.1,9.34,10.1,10.1,0,0,0,1.89,3.59,8.51,8.51,0,0,0,3.13,2.35,10.55,10.55,0,0,0,4.35.84,12,12,0,0,0,2.83-.33,7.72,7.72,0,0,0,2.45-1.06,6,6,0,0,0,1.79-1.9,7.62,7.62,0,0,0,1-2.83H265Z"/><path class="cls-3" d="M312.54,128.5H300.77v6.37h11.12v8.39H300.77v6.57h11.77v8.38H290.87V120.12h21.67Z"/><path class="cls-3" d="M148.71,193.48a10.77,10.77,0,0,0-12.6-3.39,9.89,9.89,0,0,0-5.41,5.51,10.91,10.91,0,0,0-.78,4.15,11,11,0,0,0,.78,4.19,10.14,10.14,0,0,0,5.43,5.56,10.05,10.05,0,0,0,4,.81,11.44,11.44,0,0,0,8.54-4.05V218l-1,.35a30,30,0,0,1-4.24,1.19,20.83,20.83,0,0,1-3.89.38,19.82,19.82,0,0,1-13.92-5.69,20.77,20.77,0,0,1-4.42-6.41,20.58,20.58,0,0,1,0-16.17,20.12,20.12,0,0,1,18.42-11.95,21,21,0,0,1,4.47.48,26.5,26.5,0,0,1,4.62,1.49Z"/><path class="cls-3" d="M163.26,176.91v41.93h-9.14V176.91Z"/><path class="cls-3" d="M168.52,205.66a12.65,12.65,0,0,1,1.16-5.38,13.15,13.15,0,0,1,3.23-4.35,15.26,15.26,0,0,1,4.93-2.9,17.69,17.69,0,0,1,6.24-1.07,18,18,0,0,1,6.19,1,15.35,15.35,0,0,1,4.95,2.88,12.86,12.86,0,0,1,3.26,4.4,13.5,13.5,0,0,1,1.16,5.63,13.2,13.2,0,0,1-1.18,5.63,13.54,13.54,0,0,1-3.26,4.4,14.59,14.59,0,0,1-5,2.85,18.9,18.9,0,0,1-6.29,1,18.11,18.11,0,0,1-6.17-1,14.11,14.11,0,0,1-4.87-2.88,13.1,13.1,0,0,1-3.21-4.47A14.07,14.07,0,0,1,168.52,205.66Zm9.65.1a5.91,5.91,0,0,0,.48,2.4,6.51,6.51,0,0,0,1.26,1.89,5.68,5.68,0,0,0,1.87,1.27,6.1,6.1,0,0,0,4.6,0,5.68,5.68,0,0,0,1.87-1.27,6.51,6.51,0,0,0,1.26-1.89,5.78,5.78,0,0,0,.48-2.35,5.61,5.61,0,0,0-.48-2.3,6.38,6.38,0,0,0-1.26-1.89,5.68,5.68,0,0,0-1.87-1.27,6.1,6.1,0,0,0-4.6,0,5.68,5.68,0,0,0-1.87,1.27,6.5,6.5,0,0,0-1.26,1.86A5.48,5.48,0,0,0,178.17,205.76Z"/><path class="cls-3" d="M214,192.93v14.6q0,4.8,4.65,4.8t4.65-4.8v-14.6h9.14V209.3q0,5.25-3.46,7.88t-10.33,2.63q-6.87,0-10.33-2.63t-3.46-7.88V192.93Z"/><path class="cls-3" d="M258.71,176.91h9.19v41.93h-9.19V216a9.61,9.61,0,0,1-7.94,3.69,12.56,12.56,0,0,1-5.2-1.06,12.78,12.78,0,0,1-4.14-2.93,13.41,13.41,0,0,1-2.76-4.39,15.58,15.58,0,0,1,0-10.74,13.29,13.29,0,0,1,2.66-4.37,12.51,12.51,0,0,1,4.11-3,12.72,12.72,0,0,1,5.28-1.08,10.59,10.59,0,0,1,8,3.38Zm-11.52,28.9a6,6,0,0,0,1.69,4.24,5.58,5.58,0,0,0,1.87,1.27,6.07,6.07,0,0,0,2.35.45,6,6,0,0,0,2.3-.45,5.79,5.79,0,0,0,1.87-1.27,6.55,6.55,0,0,0,1.26-1.87,5.41,5.41,0,0,0,.48-2.27,5.64,5.64,0,0,0-.48-2.3,6.51,6.51,0,0,0-1.26-1.89,5.79,5.79,0,0,0-1.87-1.27,6.1,6.1,0,0,0-4.6,0,5.58,5.58,0,0,0-1.87,1.27,6.68,6.68,0,0,0-1.26,1.84A5.28,5.28,0,0,0,247.19,205.81Z"/></g></svg>