<svg xmlns="http://www.w3.org/2000/svg" xmlns:xlink="http://www.w3.org/1999/xlink" viewBox="0 0 408 267"><defs><style>.cls-1{fill:url(#New_Gradient_Swatch_19);}.cls-2{fill:url(#linear-gradient);}.cls-3{fill:#fff;}</style><linearGradient id="New_Gradient_Swatch_19" x1="2.04" y1="134.43" x2="402.04" y2="134.43" gradientUnits="userSpaceOnUse"><stop offset="0" stop-color="#cacccd"/><stop offset="1" stop-color="#fff"/></linearGradient><linearGradient id="linear-gradient" x1="26.38" y1="131.61" x2="379.48" y2="131.61" gradientUnits="userSpaceOnUse"><stop offset="0" stop-color="#f5812a"/><stop offset="1" stop-color="#dc2b2b"/></linearGradient></defs><g id="Wider"><path class="cls-1" d="M72,267c-16.22-4.11-31.47-15.55-43.47-27.77A91.87,91.87,0,0,1,2,174.47,92.79,92.79,0,0,1,60.49,88.53a.8.8,0,0,0,.51-.65A74.51,74.51,0,0,1,175.33,35.56a.82.82,0,0,0,1.08-.16A92.5,92.5,0,0,1,339.86,86.64a.81.81,0,0,0,.54.7,92.41,92.41,0,0,1-30.77,179.54S72.07,267,72,267Z"/><path class="cls-2" d="M94,240.67c-37.29-.71-67.63-31.64-67.63-69a69.17,69.17,0,0,1,55-67.54,4.28,4.28,0,0,0,3.41-4.57c-.12-1.45-.18-2.9-.18-4.3a51,51,0,0,1,93.6-28.14,3.51,3.51,0,0,0,2.93,1.68,3.43,3.43,0,0,0,3.18-2.33,69,69,0,0,1,133.25,25,70,70,0,0,1-.41,7.42,4.16,4.16,0,0,0,3.54,4.59,69,69,0,0,1-10.22,137.16H136.4C134.85,240.68,95.15,240.69,94,240.67Z"/><path class="cls-3" d="M72.87,130.16A19.64,19.64,0,0,1,85.42,111.6a24.26,24.26,0,0,1,17,0,20,20,0,0,1,6.69,4.27,19.39,19.39,0,0,1,4.37,6.39,20.69,20.69,0,0,1,0,15.81,19.49,19.49,0,0,1-4.37,6.39,20,20,0,0,1-6.69,4.27,24.26,24.26,0,0,1-17,0,19.58,19.58,0,0,1-11-10.66A20,20,0,0,1,72.87,130.16Zm10.36,0a10.05,10.05,0,0,0,.86,4.2,10.49,10.49,0,0,0,5.73,5.53,11.27,11.27,0,0,0,8.24,0,10.66,10.66,0,0,0,3.43-2.2,10.37,10.37,0,0,0,2.35-3.33,10.66,10.66,0,0,0,0-8.39,10.37,10.37,0,0,0-2.35-3.33,10.66,10.66,0,0,0-3.43-2.2,11.27,11.27,0,0,0-8.24,0A10.49,10.49,0,0,0,84.09,126,10,10,0,0,0,83.23,130.16Z"/><path class="cls-3" d="M151.32,149.21H141.13a.81.81,0,0,1-.7-.38l-7.68-11.9a.82.82,0,0,0-1.52.45v11a.83.83,0,0,1-.83.83h-8.25a.83.83,0,0,1-.83-.83V112a.83.83,0,0,1,.83-.83h14.58a15.2,15.2,0,0,1,5.56.93,10.75,10.75,0,0,1,3.92,2.55,10.89,10.89,0,0,1,2.32,3.74,13.1,13.1,0,0,1,.78,4.55,11.22,11.22,0,0,1-2.09,7,10.05,10.05,0,0,1-5,3.34.83.83,0,0,0-.41,1.29L152,147.88A.83.83,0,0,1,151.32,149.21Zm-20.09-21.9a.83.83,0,0,0,.83.83h1a7.19,7.19,0,0,0,4.49-1.21,4.65,4.65,0,0,0,0-7,7.19,7.19,0,0,0-4.49-1.21h-1a.83.83,0,0,0-.83.83Z"/><path class="cls-3" d="M179.9,142.59h-13a.83.83,0,0,0-.78.57l-1.89,5.49a.82.82,0,0,1-.78.56h-8.77a.82.82,0,0,1-.77-1.12l13.87-36.44a.82.82,0,0,1,.77-.53h9.67a.85.85,0,0,1,.78.53l13.86,36.44a.82.82,0,0,1-.77,1.12h-8.76a.83.83,0,0,1-.79-.56l-1.89-5.49A.83.83,0,0,0,179.9,142.59ZM177.47,134l-3.27-9.34a.83.83,0,0,0-1.57,0L169.36,134a.83.83,0,0,0,.78,1.11h6.55A.83.83,0,0,0,177.47,134Z"/><path class="cls-3" d="M197.67,148.38V112a.83.83,0,0,1,.83-.83h8.67a.83.83,0,0,1,.65.31l16.56,21.09a.83.83,0,0,0,1.48-.51V112a.83.83,0,0,1,.83-.83h8.19a.83.83,0,0,1,.83.83v36.43a.83.83,0,0,1-.83.83h-8.62a.83.83,0,0,1-.65-.31l-16.56-21.09a.83.83,0,0,0-1.48.51v20.06a.83.83,0,0,1-.83.83H198.5A.83.83,0,0,1,197.67,148.38Z"/><path class="cls-3" d="M263.78,127.89h18a.85.85,0,0,1,.84.85c0,1.69-.11,3.24-.25,4.66a20,20,0,0,1-1,4.6,18.68,18.68,0,0,1-2.88,5.28,17,17,0,0,1-4.27,3.84,20.48,20.48,0,0,1-5.38,2.35,23.5,23.5,0,0,1-6.17.8,21.64,21.64,0,0,1-8.11-1.46,18.33,18.33,0,0,1-6.29-4.12,18.71,18.71,0,0,1-4.09-6.37,22.09,22.09,0,0,1-1.46-8.21,22.42,22.42,0,0,1,1.44-8.16,17.91,17.91,0,0,1,4.09-6.34,18.7,18.7,0,0,1,6.39-4.09,22.6,22.6,0,0,1,8.34-1.46,20.66,20.66,0,0,1,10.46,2.57,17.58,17.58,0,0,1,6.71,7.18.84.84,0,0,1-.42,1.15l-7.83,3.24a.84.84,0,0,1-1.07-.43,8.94,8.94,0,0,0-3.08-3.76,8.56,8.56,0,0,0-4.77-1.37,9.48,9.48,0,0,0-4,.84,8.72,8.72,0,0,0-3.11,2.37,11.27,11.27,0,0,0-2,3.72,16.17,16.17,0,0,0-.1,9.34,10.1,10.1,0,0,0,1.89,3.59,8.51,8.51,0,0,0,3.13,2.35,10.55,10.55,0,0,0,4.35.84,12,12,0,0,0,2.83-.33,7.72,7.72,0,0,0,2.45-1.06,6,6,0,0,0,1.79-1.9,6.74,6.74,0,0,0,.75-1.79.84.84,0,0,0-.81-1h-6.28a.83.83,0,0,1-.83-.83v-6A.83.83,0,0,1,263.78,127.89Z"/><path class="cls-3" d="M309.71,119.5H299.6a.83.83,0,0,0-.83.83V125a.83.83,0,0,0,.83.83h9.45a.84.84,0,0,1,.84.83v6.73a.84.84,0,0,1-.84.83H299.6a.83.83,0,0,0-.83.83V140a.83.83,0,0,0,.83.83h10.11a.83.83,0,0,1,.83.83v6.72a.83.83,0,0,1-.83.83h-20a.83.83,0,0,1-.83-.83V112a.83.83,0,0,1,.83-.83h20a.83.83,0,0,1,.83.83v6.72A.83.83,0,0,1,309.71,119.5Z"/><path class="cls-3" d="M146.71,182.41a.82.82,0,0,1-1.37.62,10.25,10.25,0,0,0-7.12-2.74,10.49,10.49,0,0,0-4.11.8,9.89,9.89,0,0,0-5.41,5.51,10.91,10.91,0,0,0-.78,4.15,11,11,0,0,0,.78,4.19,10.14,10.14,0,0,0,5.43,5.56,10.05,10.05,0,0,0,4,.81,10.89,10.89,0,0,0,7.19-2.76.83.83,0,0,1,1.35.65V209l-1,.35a30,30,0,0,1-4.24,1.19,20.83,20.83,0,0,1-3.89.38,19.82,19.82,0,0,1-13.92-5.69,20.77,20.77,0,0,1-4.42-6.41,20.58,20.58,0,0,1,0-16.17,20.12,20.12,0,0,1,18.42-11.95,21,21,0,0,1,4.47.48,26.38,26.38,0,0,1,4.09,1.27.85.85,0,0,1,.53.78Z"/><path class="cls-3" d="M161.26,168.74V209a.83.83,0,0,1-.83.83H153a.83.83,0,0,1-.83-.83V168.74a.83.83,0,0,1,.83-.83h7.48A.83.83,0,0,1,161.26,168.74Z"/><path class="cls-3" d="M166.52,196.66a12.65,12.65,0,0,1,1.16-5.38,13.15,13.15,0,0,1,3.23-4.35,15.26,15.26,0,0,1,4.93-2.9,17.69,17.69,0,0,1,6.24-1.07,18,18,0,0,1,6.19,1,15.35,15.35,0,0,1,4.95,2.88,12.86,12.86,0,0,1,3.26,4.4,13.5,13.5,0,0,1,1.16,5.63,13.2,13.2,0,0,1-1.18,5.63,13.54,13.54,0,0,1-3.26,4.4,14.59,14.59,0,0,1-5,2.85,18.9,18.9,0,0,1-6.29,1,18.11,18.11,0,0,1-6.17-1,14.11,14.11,0,0,1-4.87-2.88,13.1,13.1,0,0,1-3.21-4.47A14.07,14.07,0,0,1,166.52,196.66Zm9.65.1a5.91,5.91,0,0,0,.48,2.4,6.51,6.51,0,0,0,1.26,1.89,5.68,5.68,0,0,0,1.87,1.27,6.1,6.1,0,0,0,4.6,0,5.68,5.68,0,0,0,1.87-1.27,6.51,6.51,0,0,0,1.26-1.89,5.78,5.78,0,0,0,.48-2.35,5.61,5.61,0,0,0-.48-2.3,6.38,6.38,0,0,0-1.26-1.89,5.68,5.68,0,0,0-1.87-1.27,6.1,6.1,0,0,0-4.6,0,5.68,5.68,0,0,0-1.87,1.27,6.5,6.5,0,0,0-1.26,1.86A5.48,5.48,0,0,0,176.17,196.76Z"/><path class="cls-3" d="M211.21,183.93a.83.83,0,0,1,.83.83v13.77q0,4.8,4.65,4.8t4.65-4.8V184.76a.83.83,0,0,1,.83-.83h7.48a.83.83,0,0,1,.83.83V200.3q0,5.25-3.46,7.88t-10.33,2.63q-6.87,0-10.33-2.63t-3.46-7.88V184.76a.83.83,0,0,1,.83-.83Z"/><path class="cls-3" d="M257.54,167.91h7.53a.83.83,0,0,1,.83.83V209a.83.83,0,0,1-.83.83h-7.53a.83.83,0,0,1-.83-.83h0a.83.83,0,0,0-1.37-.62,9.77,9.77,0,0,1-6.57,2.26,12.56,12.56,0,0,1-5.2-1.06,12.78,12.78,0,0,1-4.14-2.93,13.41,13.41,0,0,1-2.76-4.39,15.58,15.58,0,0,1,0-10.74,13.29,13.29,0,0,1,2.66-4.37,12.51,12.51,0,0,1,4.11-3,12.72,12.72,0,0,1,5.28-1.08,10.69,10.69,0,0,1,6.7,2.16.82.82,0,0,0,1.34-.62V168.74A.83.83,0,0,1,257.54,167.91Zm-12.35,28.9a6,6,0,0,0,1.69,4.24,5.58,5.58,0,0,0,1.87,1.27,6.07,6.07,0,0,0,2.35.45,6,6,0,0,0,2.3-.45,5.79,5.79,0,0,0,1.87-1.27,6.55,6.55,0,0,0,1.26-1.87,5.41,5.41,0,0,0,.48-2.27,5.64,5.64,0,0,0-.48-2.3,6.51,6.51,0,0,0-1.26-1.89,5.79,5.79,0,0,0-1.87-1.27,6.1,6.1,0,0,0-4.6,0,5.58,5.58,0,0,0-1.87,1.27,6.68,6.68,0,0,0-1.26,1.84A5.28,5.28,0,0,0,245.19,196.81Z"/></g></svg>