<svg xmlns="http://www.w3.org/2000/svg" xmlns:xlink="http://www.w3.org/1999/xlink" viewBox="0 0 401 321"><defs><style>.cls-1{fill:url(#New_Gradient_Swatch_19);}.cls-2{fill:url(#linear-gradient);}.cls-3{fill:#fff;}</style><linearGradient id="New_Gradient_Swatch_19" x1="0.35" y1="164.21" x2="400.35" y2="164.21" gradientUnits="userSpaceOnUse"><stop offset="0" stop-color="#cacccd"/><stop offset="1" stop-color="#fff"/></linearGradient><linearGradient id="linear-gradient" x1="24.69" y1="159.75" x2="377.8" y2="159.75" gradientUnits="userSpaceOnUse"><stop offset="0" stop-color="#f0508f"/><stop offset="1" stop-color="#a10b50"/></linearGradient></defs><g id="Wider"><path class="cls-1" d="M87.82,320.57a20.9,20.9,0,0,1-20.76-23.25l3-27.25A92.51,92.51,0,0,1,.35,180.47a92.79,92.79,0,0,1,58.9-86.11A74.5,74.5,0,0,1,174.26,42a92.49,92.49,0,0,1,164,51.2,92.4,92.4,0,0,1-30.27,179.71H141.83c-4.67,5.33-11.42,13-18,20.2C103.63,315.32,98.46,320.57,87.82,320.57Z"/><path class="cls-2" d="M96.25,251.11a4,4,0,0,0-3.92-4.44C55,246,24.69,215,24.69,177.71a69.17,69.17,0,0,1,55-67.54,4.29,4.29,0,0,0,3.42-4.57c-.13-1.45-.19-2.9-.19-4.3a51,51,0,0,1,93.6-28.14,3.53,3.53,0,0,0,2.93,1.68,3.43,3.43,0,0,0,3.18-2.33,69,69,0,0,1,133.26,25,67.53,67.53,0,0,1-.42,7.42,4.17,4.17,0,0,0,3.55,4.59,69,69,0,0,1-10.23,137.16H134.71a6.23,6.23,0,0,0-4.36,2c-17.17,19.71-31.5,35.46-38.43,42.29Z"/><path class="cls-3" d="M133.62,163.37h-9.91v-38.1h15.77q6.41,0,9.82,3.34t3.42,9.4q0,6.06-3.42,9.39t-9.82,3.34h-5.86Zm0-20.61h3.28c3.64,0,5.46-1.59,5.46-4.75s-1.82-4.75-5.46-4.75h-3.28Z"/><path class="cls-3" d="M167.87,125.27v38.1H158v-38.1Z"/><path class="cls-3" d="M175.86,163.37v-38.1h9.9l18.29,23.3v-23.3h9.85v38.1h-9.85l-18.29-23.29v23.29Z"/><path class="cls-3" d="M231.79,141l12.07-15.72h12.23l-15.11,18,16.53,20.06H244.67l-12.88-16.52v16.52h-9.9v-38.1h9.9Z"/><path class="cls-3" d="M143.39,198.64a10.56,10.56,0,0,0-8.48-4.2,10.34,10.34,0,0,0-4.12.81,9.92,9.92,0,0,0-3.26,2.2,10.13,10.13,0,0,0-2.15,3.31,10.89,10.89,0,0,0-.78,4.14,11.06,11.06,0,0,0,.78,4.2,10.08,10.08,0,0,0,9.47,6.36,11.43,11.43,0,0,0,8.54-4v11.72l-1,.36a28.58,28.58,0,0,1-4.24,1.18,20,20,0,0,1-3.89.38,19.87,19.87,0,0,1-13.92-5.68,20.7,20.7,0,0,1-4.42-6.42,20.58,20.58,0,0,1,0-16.17,20.1,20.1,0,0,1,4.4-6.31,20.33,20.33,0,0,1,14-5.64,21,21,0,0,1,4.47.48,28,28,0,0,1,4.62,1.49Z"/><path class="cls-3" d="M157.94,182.07V224H148.8V182.07Z"/><path class="cls-3" d="M163.2,210.81a12.72,12.72,0,0,1,1.16-5.38,13.25,13.25,0,0,1,3.24-4.34,15.42,15.42,0,0,1,4.92-2.91,18.92,18.92,0,0,1,12.43,0,15.35,15.35,0,0,1,5,2.88,12.83,12.83,0,0,1,3.26,4.39,13.39,13.39,0,0,1,1.16,5.64,13.2,13.2,0,0,1-1.18,5.63,13.54,13.54,0,0,1-3.26,4.4,14.49,14.49,0,0,1-5,2.85,18.86,18.86,0,0,1-6.29,1,18,18,0,0,1-6.16-1,14.06,14.06,0,0,1-4.88-2.88,13.38,13.38,0,0,1-3.21-4.47A14.09,14.09,0,0,1,163.2,210.81Zm9.65.11a5.91,5.91,0,0,0,.48,2.4,6.51,6.51,0,0,0,1.26,1.89,5.51,5.51,0,0,0,1.87,1.26,6,6,0,0,0,4.6,0,5.51,5.51,0,0,0,1.87-1.26,6.51,6.51,0,0,0,1.26-1.89,5.78,5.78,0,0,0,.48-2.35,5.61,5.61,0,0,0-.48-2.3,6.43,6.43,0,0,0-1.26-1.9,5.51,5.51,0,0,0-1.87-1.26,6.1,6.1,0,0,0-4.6,0,5.51,5.51,0,0,0-1.87,1.26,6.69,6.69,0,0,0-1.26,1.87A5.48,5.48,0,0,0,172.85,210.92Z"/><path class="cls-3" d="M208.72,198.08v14.6c0,3.21,1.55,4.8,4.65,4.8s4.65-1.59,4.65-4.8v-14.6h9.15v16.37c0,3.51-1.16,6.13-3.47,7.89S218,225,213.37,225s-8-.87-10.33-2.62-3.46-4.38-3.46-7.89V198.08Z"/><path class="cls-3" d="M253.39,182.07h9.19V224h-9.19v-2.88a9.61,9.61,0,0,1-7.94,3.69,12.56,12.56,0,0,1-5.2-1.06,12.89,12.89,0,0,1-4.14-2.93,13.46,13.46,0,0,1-2.76-4.4,15.55,15.55,0,0,1,0-10.73,13.19,13.19,0,0,1,2.66-4.37,12.51,12.51,0,0,1,4.11-3,12.72,12.72,0,0,1,5.28-1.09,10.55,10.55,0,0,1,8,3.39ZM241.87,211a6.11,6.11,0,0,0,.45,2.35,6.26,6.26,0,0,0,1.24,1.89,5.42,5.42,0,0,0,1.87,1.26,5.9,5.9,0,0,0,2.35.46,5.8,5.8,0,0,0,2.3-.46,5.61,5.61,0,0,0,1.87-1.26,6.55,6.55,0,0,0,1.26-1.87,5.44,5.44,0,0,0,.48-2.27,5.61,5.61,0,0,0-.48-2.3,6.43,6.43,0,0,0-1.26-1.9,5.76,5.76,0,0,0-1.87-1.26,6.1,6.1,0,0,0-4.6,0,5.66,5.66,0,0,0-1.87,1.26,6.73,6.73,0,0,0-1.26,1.85A5.28,5.28,0,0,0,241.87,211Z"/></g></svg>