<svg xmlns="http://www.w3.org/2000/svg" viewBox="0 0 100 99.7"><defs><style>.cls-1{fill:#f5a804;}.cls-2{fill:#ffc904;}.cls-3{font-size:34.69px;}.cls-3,.cls-4,.cls-5{fill:#1d1d1b;font-family:Tahoma-Bold, Tahoma;font-weight:700;}.cls-4{font-size:10.68px;}.cls-5{font-size:10.01px;}</style></defs><g id="Wider"><g id="Group_1073" data-name="Group 1073"><g id="Group_1072" data-name="Group 1072"><path id="Path_2790" data-name="Path 2790" class="cls-1" d="M.18,39a.17.17,0,0,0,0-.1A2.27,2.27,0,0,1,0,38.6Z"/><path id="Path_2791" data-name="Path 2791" class="cls-1" d="M6.67,23.56l.07-.07S6.65,23.42,6.67,23.56Z"/><path id="Path_2792" data-name="Path 2792" class="cls-1" d="M8,76a1.29,1.29,0,0,1-.19-.21A.43.43,0,0,0,8,76Z"/><path id="Path_2793" data-name="Path 2793" class="cls-1" d="M88.91,80l0,.06.16-.1Z"/><path id="Path_2794" data-name="Path 2794" class="cls-1" d="M88.72,80.42c-.08,0,.08-.25.15-.36a2.79,2.79,0,0,0-.83.88C88.14,81,88.49,80.57,88.72,80.42Z"/><path id="Path_2795" data-name="Path 2795" class="cls-1" d="M88.82,80.33a.33.33,0,0,0-.1.06A.33.33,0,0,0,88.82,80.33Z"/><path id="Path_2796" data-name="Path 2796" class="cls-1" d="M97.58,36.56l.24,0A.29.29,0,0,0,97.58,36.56Z"/><path id="Path_2797" data-name="Path 2797" class="cls-1" d="M16.48,11.79a.29.29,0,0,0,.18.07v0Z"/><path id="Path_2798" data-name="Path 2798" class="cls-1" d="M83.78,16.91l-.32-.1a1.07,1.07,0,0,0,.28.19A.36.36,0,0,0,83.78,16.91Z"/><path id="Path_2799" data-name="Path 2799" class="cls-1" d="M33,3.05l.79-.32,1.14-.46s0-.07,0-.09a13.28,13.28,0,0,0-2.37.74l0,.29Z"/><path id="Path_2800" data-name="Path 2800" class="cls-1" d="M98.59,59.35c.1-.45.19-.93.28-1.42s.13-1,.2-1.47a17.2,17.2,0,0,1,.47-2.56,4.23,4.23,0,0,0,0-2.12c-.12-.66-.3-1.22-.32-1.48a4.38,4.38,0,0,1,0-1.94c.08-.35.19-.57.23-.46-.17-1.58-.87-3-.87-5.2a2.22,2.22,0,0,0,0-1.3c-.11-.61-.33-1.32-.53-2-.43-1.38-.9-2.65-.57-2.78h-.07a11.42,11.42,0,0,0-.44-2.09,20.87,20.87,0,0,0-.76-2c-.28-.66-.61-1.31-.88-2a19.11,19.11,0,0,1-.78-2.13.91.91,0,0,1,.16.11l-.72-.75c-.43-.45-1-1-1.65-1.56s-1.24-1.07-1.71-1.47L90,24.07s-.29.68-.57,1.36-.62,1.32-.62,1.32a.89.89,0,0,0,0,.22c-.58-1-1.21-2.08-1.88-3.09-.15-.37-.32-.78-.51-1.2-.34-.76-.69-1.58-1-2.28s-.61-1.34-.78-1.71c.65.84.72,1,.66.78s-.3-.62-.38-.83h-.2c-.75-1-.5-1.26-.86-1.8a.41.41,0,0,0,0,.09h.09c0,.09-.05.09-.13.06s-.12.06-.35-.2h.07a16.32,16.32,0,0,1-1.33-1.3l.19-.21a3.3,3.3,0,0,1-1.14-.89c-.22-.24-.47-.52-.72-.82s-.54-.57-.81-.91-.57-.64-.83-.94l-.8-.84-.69-.7a5.17,5.17,0,0,0-.51-.42C76,8.72,74.34,8.23,73,7.3c-2.28-1.31-1-1-2-1.79-1.42-.87.17.44-.44.17l-.81-.56c-.42-.3-.84-.57-.84-.57,1.08.41.57,0,.42-.17-.79-.35-1.76-.92-2.66-1.29a8.8,8.8,0,0,0-1.21-.45,1.22,1.22,0,0,0-.8,0l-1.25-.57-.71-.4a5.57,5.57,0,0,0-1.1-.46c.3.19.93.44.9.57-.85-.48-.45-.05-.09.09a9.79,9.79,0,0,1-1.71-.46c-.74-.22-1.59-.57-2.42-.78C56.57.13,55-.18,54.82.11V0c-.38.42.11.92-.9,1.08L53.28.83l-1,.14C51.62.78,52,.68,52,.62a21.8,21.8,0,0,1-2.8,0c-1,0-2.07-.07-3,0a11.05,11.05,0,0,1,1.07.57l1,.57c-1.61-.28-4.63-.51-4.9-.05l-.51-.14-.53-.13c-3.41-.2-2.2.78-3.52.83l-.87,0H37s.39-.12.8-.22l.83-.19-1.08.1-.87.1c-.57,0-1.07.06-1.76.14h.18l-.22.08a4.58,4.58,0,0,1-2.05,1.13c-.78.28-1.46.61-2.28,1a10.68,10.68,0,0,1-1.3.57c-.25.1-.51.19-.79.28s-.57.21-.91.31l-.37.72s-.48.16-.94.35l-.91.38-.19-.32c.85-.51,2.1-1.19,3.42-1.9l2-1,1.93-.81V2.75c-.7.28-1.44.62-2.11.94s-1.27.66-1.71.85-1.52.33-1.21-.11L27,5c-1.14.57-1.93,1.1-2.63,1.5s-1.22.77-1.79,1.11-1.13.67-1.82,1.14l-1.23.73c-.44.28-.92.62-1.47,1l.48-.15c-.38.38-.75.75-1.08,1a1.39,1.39,0,0,1-.8.46c-2.42,2.08-4.84,4.41-6.5,5.79l0,.32,0,.31c-.42.53-1.58,1-1.27,1.6l-.12.2-.22.45-.32.65a9.45,9.45,0,0,0-.62,1.06,4.39,4.39,0,0,1-.77,1.09h0l-.15.14h0c-.63.86-.53.91-.47,1s.11.18-.57,1.18c-.64.54.09,1-.49,2l-1.08.79a6.66,6.66,0,0,0-.94,2.27c-.08.36-.15.76-.27,1.25s-.3,1.06-.52,1.8c-.64,1.33-1.38,1.89-1.55.8.07.74.14.92.14,1.14S1,36.18.91,37.08c-.31.21-.31,0-.42-.42-.34.75-.34,1-.29,1.22a1.81,1.81,0,0,1,0,1c.37.43,1,1,.94,1.33l.23-.42a14.58,14.58,0,0,1-.09,2,16.17,16.17,0,0,1-.37,2.08l-.22-.08v1.55l-.29.08v2.25l.08-.3c0,.26,0,.82,0,1.43v.93a5.5,5.5,0,0,1,0,.84l-.16,0c-.42,2.79.45,5.05,1.14,8.19l-.4-.36c-.1,1.14.52.21.65,1.52L1.34,60c.79,1,.22,1.49.25,2.32l.4-.5.32,1.47c.14.83.07,1.14-.1,1.19a1,1,0,0,1-.57-.16l.38.48.38.47L2,65.62c.79.61.16.83,1,2.09-.12.18-.35-.13-.23.36l.62,1,.8,1-.43-.57L3.49,69l-.13-.2.69-.1a3.55,3.55,0,0,1,.88,1.48,3.32,3.32,0,0,0,.57,1.27l-.27-.28C5.1,71,5,70.89,5,70.89a7.36,7.36,0,0,1,1.07,2.65c0-.33-.09-.84.32-.25.29.42-.07.35.12.82.22-.07.57.14.86.5A5.46,5.46,0,0,1,8.2,76,.34.34,0,0,1,8,76a1.55,1.55,0,0,1,.57.74l-.57,0,.93.56c.25.63,1.14,1.14.79,1.29l-.3-.24.44.64c.26.37.61.88,1,1.36l1,1.34c.29.36.5.57.5.57l-.26.32c.38,0,.79.53,1.14,1s.74.82.92.53a6.39,6.39,0,0,0,1.43,1.55c.57.49.94.87.48,1,.29.28.57.54.86.77s.57.43.87.63c.57.38,1.1.75,1.71,1.09s1.14.72,1.8,1.14,1.33.92,2.12,1.51A8.5,8.5,0,0,0,26.25,94c.33.18.65.37,1,.54l1,.48,1,.47.93.41a48.51,48.51,0,0,0,6.36,1.81c1,.19,2,.42,3.1.57.53.08,1.09.18,1.66.24l1.81.21a8,8,0,0,0,2.46.61,20.83,20.83,0,0,0,2.85.08,53.4,53.4,0,0,1,5.52-.17l.86-.44a6.17,6.17,0,0,0,1.82,0,14.44,14.44,0,0,0,2.09-.33,41.8,41.8,0,0,1,4.56-.79,13.17,13.17,0,0,1,1.2-.57A.47.47,0,0,1,64,96.9c.89-.06,2.48-.84,2.52-.36l-.2.12c0,.24.62,0,1.36-.35a6,6,0,0,1,2.09-.76l-.69-.27.78-.26.77-.31-.36.27c3-2,5.28-3.14,7.46-4.44a21.24,21.24,0,0,0,6.37-5.33c-.14.49.06.22.35-.13s.63-.81.87-.63a3.32,3.32,0,0,0,1.77-1.59c.38-.67.67-1.36,1-2a.22.22,0,0,1,0-.14l.79-.91c.2-.23.4-.45.53-.63l.23-.3c-.25,1.61.53-1.76.26-.32a34.45,34.45,0,0,0,5.53-8.9A61.63,61.63,0,0,0,98.88,59Z"/><path id="Path_2801" data-name="Path 2801" class="cls-1" d="M99.53,47.88a.33.33,0,0,1,0,.14A.33.33,0,0,0,99.53,47.88Z"/><path id="Path_2802" data-name="Path 2802" class="cls-1" d="M27.49,4.42l.14-.16A1.07,1.07,0,0,0,27.49,4.42Z"/><path id="Path_2803" data-name="Path 2803" class="cls-1" d="M46,.63h.13L45.65.39Z"/><path id="Path_2804" data-name="Path 2804" class="cls-1" d="M69.31,4.35a6.48,6.48,0,0,0,1,.35C69.28,4.18,69.2,4.23,69.31,4.35Z"/><path id="Path_2805" data-name="Path 2805" class="cls-1" d="M84.87,18.63h.24C84.87,18.44,84.84,18.48,84.87,18.63Z"/></g></g><path id="Path_2806" data-name="Path 2806" class="cls-2" d="M75.72,15.29,75.37,15c.24-.24-.8-1.14-1.33-1.75l1.71,1.18c.43.3.84.63,1.14.86l.51.4-1.19-.57c.22,0,.05-.19-.28-.48a11.42,11.42,0,0,0-1.21-.85,18.93,18.93,0,0,0,2,2.28ZM75.37,15,75,14.76l-.34-.24h-.08c.22.16.48.33.77.57h0Zm-.07.37c.68.38.19,0-.33-.31s-1-.7-.39-.57A2.05,2.05,0,0,1,74,14c-.72-.17.17.57,1.32,1.4Zm6.84,5.29a1.66,1.66,0,0,0-.35-.67C81.72,20,81.91,20.35,82.14,20.69Zm-.35.1c-.26,0-.33.09.74,1.57-.43-.71-.88-1.4-.46-1.28l.53.67c.21.08,0-.35-.29-.8l-.17-.25c0,.15-.2.1-.35.09Zm-3.24-1.71.51.35s-.66-.8-1.38-1.55l-1.44-1.49C76.2,17,77.7,17.71,78.55,19.08ZM93.79,57.42v.42c0-.18.07-.35.11-.57Zm0,.42a5.8,5.8,0,0,1-.49,1.51,6.94,6.94,0,0,0-.42,1.8l.16-.41.32-.92.31-.92a4.25,4.25,0,0,0,.13-.42v-.64Zm-.23-.14.22-.28c0-2.43.81-3.42.64-6.91C94.14,53.05,93.85,55.64,93.56,57.7ZM89,43.86l.65.11a20.82,20.82,0,0,1-.35-2.37c0-.33-.07-.67-.14-1.08a14.52,14.52,0,0,0-.41-1.43V39h0c-.36,1,.5,3.08.27,4.83Zm3.15,17.37c-.08.4-.19.84-.31,1.32s-.3,1-.46,1.55c-.09-.38.3-1.74-.15-.95a5.56,5.56,0,0,1,.08.7c-.09.18-.18.39-.29.61.09-.18.2-.39.29-.61a21.73,21.73,0,0,1-1.83,5.43c-.49,1.09-1.06,2.17-1.64,3.21l.39-.36-.34.43s-.08.33-.18.65l-.19.65c-.29.29-.6.63-.94,1,0,.1-.06.35-.28.72a14.48,14.48,0,0,1-1.14,1.67c-.48.62-1,1.32-1.6,1.95l-.8,1c-.27.29-.51.57-.73.83-.66.5-.92.57-.6,0a5.59,5.59,0,0,0,1.61-1.71c.16-.24.33-.49.52-.75L83.2,79a52.6,52.6,0,0,1-5.52,5.65c1.78-1.46,3.59-3.37,3-2-.62.27-1.94,1.33-3.53,2.43a35.85,35.85,0,0,1-3.19,2c-.57.38-1.14.76-1.74,1.13v.15a11.74,11.74,0,0,0,1.34-.75,9.83,9.83,0,0,1-1.34.76h0l-.08,0a1.55,1.55,0,0,1-.22.12c-.36.16-.7.32-1,.45a5.89,5.89,0,0,0-.76.42c-2,1.08-4.12,2.08-6.55,3.11A31.6,31.6,0,0,1,56,94.34a55.76,55.76,0,0,1-8.76.32,39.36,39.36,0,0,1-9.12-1.77l.24.1a34.67,34.67,0,0,1-13.18-6.3l-.35-.28c-1.78-1.13-3.48-2.31-5.1-3.49A7.46,7.46,0,0,1,18.71,82a14.28,14.28,0,0,1-1.21-1.25c-.39-.48-.8-1-1.18-1.54a15.64,15.64,0,0,1-1-1.71,24.85,24.85,0,0,1-6.52-9.42c-.45-1-.82-2.1-1.17-3.17a29.21,29.21,0,0,1-.87-3.27,42.73,42.73,0,0,1-.91-6.36,13.62,13.62,0,0,1,0-2A11.71,11.71,0,0,1,6,51.62c.11-.5.21-.94.33-1.32a10.15,10.15,0,0,1,.37-1v-.57a40.23,40.23,0,0,1,1.33-11,38.28,38.28,0,0,1,5-11A41.72,41.72,0,0,1,23.79,15.32,39.66,39.66,0,0,1,38.73,8.65c1-.29,2.14-.57,3.42-.84l2.55-.63.81.05c.6-.08,1.21-.16,1.82-.21,3.21-.34,6.45-.34,8.76-.4a36.91,36.91,0,0,1,5.47,1.71A28.35,28.35,0,0,1,65,9.51c3.67,1.57,5.31,3.16,6.13,4.28a4.3,4.3,0,0,1,.75,2.85,32.49,32.49,0,0,0-5.57-2,56.36,56.36,0,0,0-6-1.14l-.37,0h-.57L59,13.37a107.32,107.32,0,0,0-13-.67,13.89,13.89,0,0,0-2.58.21,22.26,22.26,0,0,0-2.9.7,38.82,38.82,0,0,0-5.69,2.28c-1.45.8-3,1.44-4.48,2.27a16.19,16.19,0,0,0-2,1.34,8.44,8.44,0,0,0-1.59,1.68A24.19,24.19,0,0,0,19.05,27a29.71,29.71,0,0,0-2.4,3.09l.06.08a24.8,24.8,0,0,1-1.63,2.45,26.9,26.9,0,0,0-2,4.75c-.31.53-.18-.16-.66.81a10.56,10.56,0,0,1-.72,3.42c-.09.49-.17,1-.24,1.48a14.16,14.16,0,0,1,0,2.06l-.33.43a43.33,43.33,0,0,0,0,8.82,37.85,37.85,0,0,0,5.33,16.28,46.11,46.11,0,0,0,5.82,7.51,33.83,33.83,0,0,0,3.86,3.42c.71.51,1.42,1,2.19,1.49s1.54.92,2.34,1.31c.31.15,1.11.62,2,1.21.48.26,1,.57,1.51.8a16.11,16.11,0,0,0,1.48.64c.67.17,1.35.26,2,.4a35.86,35.86,0,0,0,7.58,1.71c2.52.31,4.88.38,6.72.51a28.11,28.11,0,0,0,6.21-.57c2-.41,3.81-1,5.63-1.5a32.2,32.2,0,0,0,9-4.71c3-2.09,5.52-4.55,7.46-6.16a8.78,8.78,0,0,0,1.14-1.3l.68-.93c.22-.31.42-.63.61-.9.44-.45.9-.89,1.31-1.37.71-1.14.63-2.16,1.25-3.31A42.24,42.24,0,0,0,89.4,56.35c.73-4.19.84-7.92,1.31-10.1.09.35.25,1.23.43,1.86s.34,1,.54.41c.25-.78.35-1.24.62-2a19.28,19.28,0,0,0,0-2.28c0-.65-.06-1.33-.1-2l-.08-.22v-.28s0,.17.09.42l0-.5c-.09-.85-.13-1.67-.2-2.35a5.9,5.9,0,0,1,0-1.57s.19.19.36.47a4.89,4.89,0,0,1,.78,1.32,1.18,1.18,0,0,0,.06.27A9.39,9.39,0,0,1,94,42.2a25.12,25.12,0,0,1,.2,4.25l0,.08a12,12,0,0,1-.57,4.83.08.08,0,0,1,.07.06l0,.89v.36l.11.12c-.05.1-.08.18-.11.25v.17h-.09s-.07.07-.1.07a1.75,1.75,0,0,0-.17.67s0,.24.08.49l.07.48-.37,1.33c-.19.66-.41,1.31-.41,1.31.14-.69.38-2.39.53-3.85a6,6,0,0,1,.09-.74.59.59,0,0,0-.09-.24c-.21,1-.45,1.94-.73,3h0c-.33,1.27-.71,2.64-1.14,4.2a19.65,19.65,0,0,0-.33,2.75c.07,0,.14.14.2.39.13-.39.32-1,.48-1.56s.31-1,.39-1.41l.15-.65a4.37,4.37,0,0,1-.08,1.8Zm1.3-9.36c0,.13-.07.26-.1.39l0,.05a2.47,2.47,0,0,1,.06-.43ZM84.78,77Zm-.89-9.12c-.94,1.79.34.35-.11,1.64A9.61,9.61,0,0,1,85.38,67c-.13-.1-1.43,1.64-.79.25C84.15,68.12,83.75,68.79,83.89,67.91Zm.7-.66.44-.9c-.2.39-.35.68-.45.9Zm-2.33,4.63-.48.61a4.11,4.11,0,0,0-.64,1.06c.57-.83,1.41-1.36,1.58-2.28Zm-.68-.9-.1.25c0,.13-.11.25-.11.25l.17-.15.35-.34.52-.5Zm-4.11,5.56a4.92,4.92,0,0,0,1.14-.9c-.3.24-.54.42-.67.38l.35-.42.75-.94c.28-.33.52-.7.72-1l.32-.44-1,1.17-1.1,1.14c-.53.8-.63,1.05-.45,1Zm3.41-3L81,73.4l.16-.34.23-.49s-.27.27-.61.72-.82,1-1.28,1.53c.64-.66,1.22-1.26,1.42-1.27Zm-2.27,2.09c.29-.26.57-.53.84-.82Zm-2.85,1.87-.36.34.21.42c.67-.76.19-.67.15-.76ZM71,80.83l.82-.52.84-.57c-1.17.81-.48,0-.54-.14a18.22,18.22,0,0,0-2.72,2,6.16,6.16,0,0,0,1.6-.75Zm-2.19.38.82-.53a7.91,7.91,0,0,0,.8-.57l.36-.25a1.47,1.47,0,0,0-1.07.5c-.38.3-.79.72-1.28,1l.37-.23ZM65.3,83.58l-.79.13c-.21.15,0,.19-.4.48a8.7,8.7,0,0,0,2-.75s-.39.09-.78.15Z"/><text class="cls-3" transform="matrix(0.98, 0.17, -0.17, 0.98, 14.63, 55.73)">$25</text><text class="cls-4" transform="matrix(0.98, 0.17, -0.17, 0.98, 18.12, 25.9)">RATES FROM</text><text class="cls-5" transform="matrix(0.98, 0.17, -0.17, 0.98, 18.42, 72.02)">PER HOUR</text></g></svg>