<svg id="Layer_1" data-name="Layer 1" xmlns="http://www.w3.org/2000/svg" viewBox="0 0 183 182"><defs><style>.cls-1{fill:#f5a804;}.cls-2{fill:#fff;}.cls-12,.cls-15,.cls-3,.cls-4,.cls-5,.cls-8{isolation:isolate;}.cls-4{font-size:42.94px;font-family:Futura-CondensedExtraBold, Futura;font-weight:800;}.cls-15,.cls-5{font-size:9.79px;}.cls-12,.cls-5,.cls-8{font-family:Futura-Medium, Futura;font-weight:500;}.cls-5{letter-spacing:0.01em;}.cls-6{letter-spacing:-0.03em;}.cls-7{letter-spacing:-0.01em;}.cls-12,.cls-8{font-size:6.78px;}.cls-8{letter-spacing:-0.01em;}.cls-9{letter-spacing:0.01em;}.cls-10{letter-spacing:0.02em;}.cls-11{letter-spacing:0.01em;}.cls-12{letter-spacing:-0.03em;}.cls-13{letter-spacing:0.02em;}.cls-14{letter-spacing:0.02em;}.cls-15{font-family:Futura-Bold, Futura;font-weight:700;letter-spacing:0.03em;}</style></defs><g id="Group_1089" data-name="Group 1089"><g id="Group_1074" data-name="Group 1074"><g id="Group_1073" data-name="Group 1073"><g id="Group_1072" data-name="Group 1072"><path id="Path_2790" data-name="Path 2790" class="cls-1" d="M4.32,72.19a1,1,0,0,0,0-.17A3.72,3.72,0,0,1,4,71.57Z"/><path id="Path_2791" data-name="Path 2791" class="cls-1" d="M15.71,45.18l.13-.13C15.75,45,15.68,44.93,15.71,45.18Z"/><path id="Path_2792" data-name="Path 2792" class="cls-1" d="M18,137.21a2.37,2.37,0,0,1-.34-.37A.86.86,0,0,0,18,137.21Z"/><path id="Path_2793" data-name="Path 2793" class="cls-1" d="M160.09,144.2l-.07.11c.1-.06.18-.13.28-.18Z"/><path id="Path_2794" data-name="Path 2794" class="cls-1" d="M159.75,145c-.14,0,.15-.45.27-.64a4.78,4.78,0,0,0-1.45,1.55C158.74,146,159.36,145.26,159.75,145Z"/><path id="Path_2795" data-name="Path 2795" class="cls-1" d="M159.94,144.83a.76.76,0,0,0-.19.12A.62.62,0,0,0,159.94,144.83Z"/><path id="Path_2796" data-name="Path 2796" class="cls-1" d="M175.31,68l.42.06A.48.48,0,0,0,175.31,68Z"/><path id="Path_2797" data-name="Path 2797" class="cls-1" d="M32.93,24.5a.49.49,0,0,0,.31.13l0-.05Z"/><path id="Path_2798" data-name="Path 2798" class="cls-1" d="M151.08,33.49l-.56-.16a2,2,0,0,0,.49.32A.46.46,0,0,0,151.08,33.49Z"/><path id="Path_2799" data-name="Path 2799" class="cls-1" d="M61.84,9.16l1.39-.56,2-.8s.09-.12.08-.17a25.19,25.19,0,0,0-4.17,1.3l.06.51Z"/><path id="Path_2800" data-name="Path 2800" class="cls-1" d="M177.08,108c.18-.79.34-1.63.49-2.49s.23-1.73.35-2.58a28.85,28.85,0,0,1,.84-4.49,7.44,7.44,0,0,0,.05-3.72c-.22-1.17-.53-2.14-.57-2.61a7.66,7.66,0,0,1,.1-3.4c.14-.62.33-1,.4-.8-.3-2.78-1.53-5.31-1.53-9.14a4,4,0,0,0,0-2.28c-.2-1.06-.58-2.32-.94-3.54-.75-2.43-1.58-4.66-1-4.88l-.11,0a20.93,20.93,0,0,0-.77-3.68c-.36-1.19-.87-2.33-1.35-3.49s-1.06-2.29-1.54-3.48-1-2.41-1.37-3.73a1.12,1.12,0,0,1,.29.19l-1.27-1.32c-.76-.78-1.85-1.76-2.89-2.74s-2.18-1.88-3-2.57L162,46.06s-.51,1.21-1,2.39-1.08,2.32-1.08,2.32,0,.14.07.39q-1.54-2.77-3.3-5.43c-.26-.65-.56-1.37-.9-2.1-.59-1.33-1.21-2.77-1.83-4s-1.07-2.36-1.36-3c1.13,1.47,1.26,1.68,1.15,1.36s-.53-1.09-.67-1.46l-.34,0c-1.32-1.8-.89-2.21-1.52-3.15a.48.48,0,0,0-.08.16l.16,0c0,.15-.1.15-.23.1-.07.11-.21.1-.62-.35l.13,0A29.47,29.47,0,0,1,148.24,31l.34-.37a5.72,5.72,0,0,1-2-1.56c-.4-.42-.83-.91-1.27-1.44s-.95-1-1.43-1.59-1-1.13-1.45-1.65l-1.41-1.48c-.44-.46-.85-.88-1.2-1.22a10.64,10.64,0,0,0-.91-.75c-1.56-1.82-4.4-2.68-6.75-4.32-4-2.3-1.68-1.74-3.58-3.13-2.49-1.53.29.77-.78.3l-1.42-1c-.73-.51-1.47-1-1.47-1,1.9.73,1,0,.73-.29-1.38-.62-3.09-1.62-4.66-2.27a14.72,14.72,0,0,0-2.13-.79,2.2,2.2,0,0,0-1.41,0c-.94-.42-1.64-.75-2.19-1L114,6.74a9.62,9.62,0,0,0-1.93-.81c.53.33,1.63.78,1.59,1-1.49-.83-.79-.09-.17.17a17.33,17.33,0,0,1-3-.82c-1.3-.38-2.78-1-4.25-1.36-2.92-.88-5.69-1.42-6-.91l0-.2c-.66.74.19,1.61-1.57,1.89l-1.13-.43-1.76.24c-1.15-.33-.57-.51-.56-.61a40.22,40.22,0,0,1-4.91,0c-1.78,0-3.64-.13-5.36,0,0,0,1,.46,1.88,1l1.85,1c-2.84-.5-8.13-.89-8.61-.08l-.9-.25-.92-.24c-6-.34-3.86,1.37-6.19,1.46l-1.52-.06c-.76,0-1.52,0-1.52,0s.7-.22,1.41-.39L71.89,7,70,7.18l-1.54.17c-1,.1-1.88.12-3.08.25l0,0c.16,0,.27,0,.31,0l-.38.15C65,8.31,63.66,9,61.71,9.72c-1.38.5-2.56,1.08-4,1.7a23.07,23.07,0,0,1-2.29,1c-.43.17-.89.33-1.39.49s-1,.36-1.59.53l-.65,1.28s-.84.28-1.66.6L48.54,16l-.33-.56c1.49-.9,3.68-2.1,6-3.34l3.56-1.74,3.39-1.42,0-.31c-1.23.5-2.53,1.09-3.71,1.65s-2.23,1.16-3,1.5-2.66.58-2.12-.2l-.93,1.06c-2,1-3.39,1.93-4.61,2.64s-2.15,1.34-3.14,1.94-2,1.18-3.21,2L38.28,20.5c-.77.5-1.6,1.1-2.57,1.76l.84-.26c-.66.67-1.32,1.32-1.89,1.82a2.41,2.41,0,0,1-1.42.81C29,28.29,24.76,32.38,21.83,34.8l.05.55.06.56c-.74.93-2.77,1.7-2.23,2.8l-.2.35-.39.8L18.55,41a17.38,17.38,0,0,0-1.09,1.86,7.29,7.29,0,0,1-1.35,1.9h0l-.26.26h.07c-1.1,1.5-.93,1.59-.82,1.72s.19.31-1,2.06c-1.13.95.15,1.76-.87,3.53l-1.89,1.39A11.59,11.59,0,0,0,9.68,57.7c-.14.64-.26,1.35-.47,2.21s-.53,1.86-.91,3.15c-1.13,2.34-2.42,3.32-2.72,1.41.13,1.3.24,1.61.24,2s-.08.85-.23,2.44c-.53.37-.54,0-.73-.74-.59,1.31-.6,1.76-.51,2.14a3,3,0,0,1,0,1.72C5,72.78,6.09,73.7,6,74.37l.41-.74c0,1.11,0,2.27-.16,3.45a28.05,28.05,0,0,1-.66,3.64l-.38-.14,0,1.36c0,.68,0,1.37,0,1.37l-.51.13,0,2,0,1.34,0,.61.14-.53c0,.46.08,1.44.08,2.52,0,.54,0,1.1,0,1.63s0,1.05-.08,1.48l-.28-.06c-.74,4.91.8,8.87,2,14.38l-.7-.63c-.18,2,.92.36,1.15,2.66l-.66.27c1.39,1.76.38,2.61.44,4.07l.71-.88.55,2.59c.25,1.45.12,2-.17,2.08s-.74-.14-1-.27l.67.84.67.83-.64.64c1.39,1.07.29,1.46,1.74,3.68-.21.31-.62-.24-.41.63L10,125l1.41,1.69-.76-1-.53-.73-.22-.34,1.21-.19a6.21,6.21,0,0,1,1.54,2.6,6,6,0,0,0,1,2.24l-.46-.49c-.24-.25-.44-.51-.44-.51,1.64,2.61,1.29,3,1.87,4.65-.07-.59-.16-1.47.56-.45.51.75-.12.63.21,1.44.39-.11,1,.26,1.51.88a9.57,9.57,0,0,1,1.49,2.44.43.43,0,0,1-.35,0,2.65,2.65,0,0,1,1,1.3l-1,.05,1.64,1c.43,1.09,2,2,1.38,2.26l-.53-.42.78,1.11c.46.66,1.07,1.56,1.75,2.4l1.82,2.35c.51.63.87,1,.87,1l-.45.56c.66,0,1.38.93,2,1.75s1.29,1.45,1.62.93a10.86,10.86,0,0,0,2.51,2.73c1,.85,1.64,1.53.83,1.72.52.49,1,.94,1.52,1.35s1,.76,1.52,1.1c1,.68,1.94,1.33,3,1.92s2,1.26,3.17,2,2.33,1.61,3.72,2.66a15.09,15.09,0,0,0,4.9,3.77c.57.31,1.14.64,1.73.94l1.79.85,1.74.83,1.63.72a86.65,86.65,0,0,0,11.17,3.17c1.78.33,3.54.74,5.44,1,.94.14,1.91.31,2.92.43l3.17.36A14.63,14.63,0,0,0,84,178.15a39.24,39.24,0,0,0,5,.14,91,91,0,0,1,9.69-.31l1.51-.77a10.79,10.79,0,0,0,3.21,0,28.29,28.29,0,0,0,3.67-.57,69.72,69.72,0,0,1,8-1.39,19.54,19.54,0,0,1,2.11-1,.8.8,0,0,1-.86-.33c1.56-.1,4.35-1.47,4.41-.63l-.35.21c0,.42,1.1,0,2.39-.61a10.73,10.73,0,0,1,3.68-1.34l-1.21-.46,1.37-.47,1.34-.54-.63.48c5.33-3.43,9.27-5.52,13.09-7.8a37.2,37.2,0,0,0,11.2-9.36c-.25.87.09.39.6-.23s1.11-1.42,1.54-1.1a5.84,5.84,0,0,0,3.1-2.79c.67-1.17,1.17-2.38,1.78-3.44,0,0-.07-.1-.05-.25l1.38-1.59c.35-.4.7-.8.93-1.11l.41-.52c-.44,2.82.93-3.1.45-.57a60.11,60.11,0,0,0,9.71-15.62,108,108,0,0,0,6.12-18.74Z"/><path id="Path_2801" data-name="Path 2801" class="cls-1" d="M178.74,87.86a2.13,2.13,0,0,1,0,.25A.54.54,0,0,0,178.74,87.86Z"/><path id="Path_2802" data-name="Path 2802" class="cls-1" d="M52.26,11.57l.25-.28A1.62,1.62,0,0,0,52.26,11.57Z"/><path id="Path_2803" data-name="Path 2803" class="cls-1" d="M84.77,4.91H85l-.85-.41Z"/><path id="Path_2804" data-name="Path 2804" class="cls-1" d="M125.68,11.45a10.86,10.86,0,0,0,1.68.61C125.62,11.14,125.48,11.23,125.68,11.45Z"/><path id="Path_2805" data-name="Path 2805" class="cls-1" d="M153,36.52l.42,0C153,36.18,152.94,36.26,153,36.52Z"/></g></g><path id="Path_2806" data-name="Path 2806" class="cls-2" d="M136.94,30.66c-.2-.17-.41-.32-.62-.47.42-.42-1.4-2-2.33-3.06l3,2.07c.75.53,1.47,1.1,2,1.51l.9.7-2.09-1c.38.05.08-.34-.49-.84a19.47,19.47,0,0,0-2.13-1.5,33,33,0,0,0,3.54,4Zm-.62-.47-.65-.46-.59-.42-.14,0c.38.27.84.57,1.34,1a.08.08,0,0,0,0,0Zm-.12.66c1.2.66.33.06-.58-.54s-1.72-1.24-.68-1a3.65,3.65,0,0,1-1.06-.89c-1.26-.29.3,1,2.32,2.46Zm12,9.29c0-.18-.15-.52-.61-1.19-.13,0,.22.59.61,1.19Zm-.6.17c-.47,0-.59.15,1.29,2.75-.75-1.24-1.55-2.46-.81-2.24l.93,1.18c.37.13,0-.62-.51-1.41l-.3-.44c0,.26-.34.17-.6.16Zm-5.7-3,.89.62s-1.15-1.42-2.41-2.73-2.54-2.62-2.54-2.62c-.06,1.11,2.57,2.33,4.06,4.73Zm26.76,67.31,0,.73c.06-.31.12-.61.19-1Zm0,.73a9.65,9.65,0,0,1-.87,2.66,13.11,13.11,0,0,0-.73,3.15l.28-.72.56-1.61.55-1.62c.15-.44.23-.74.23-.74,0-.41,0-.75,0-1.12Zm-.4-.25.38-.48c0-4.27,1.43-6,1.12-12.13-.49,4.45-1,9-1.5,12.61Zm-8-24.29,1.15.19a36.41,36.41,0,0,1-.61-4.15c-.06-.59-.13-1.19-.26-1.9a21.79,21.79,0,0,0-.72-2.51l0-.13h0c-.63,1.74.88,5.41.48,8.49Zm5.53,30.49c-.14.7-.32,1.48-.53,2.33s-.53,1.75-.82,2.72c-.16-.68.54-3.06-.26-1.67a10.32,10.32,0,0,1,.15,1.23c-.16.31-.33.68-.51,1.07.16-.32.34-.68.51-1.07a38.26,38.26,0,0,1-3.22,9.53c-.86,1.92-1.87,3.8-2.88,5.63.24-.23.46-.44.68-.63l-.6.76s-.14.58-.31,1.14l-.33,1.14c-.51.51-1.06,1.11-1.65,1.77.07.18-.11.62-.49,1.27a24,24,0,0,1-2,2.92c-.85,1.1-1.81,2.33-2.81,3.44l-1.41,1.66c-.47.51-.9,1-1.28,1.45-1.15.88-1.61,1-1.06,0a9.46,9.46,0,0,0,2.83-3c.28-.41.58-.85.92-1.31l-.66.79a89.79,89.79,0,0,1-9.69,9.91c3.13-2.56,6.31-5.91,5.25-3.54-1.09.47-3.4,2.34-6.2,4.27a61.68,61.68,0,0,1-5.6,3.57c-1,.68-2,1.34-3.05,2l0,.25a22.4,22.4,0,0,0,2.35-1.31,19.37,19.37,0,0,1-2.34,1.34v0l-.14.05c-.13.07-.26.15-.4.21-.63.28-1.22.55-1.79.78s-.88.5-1.33.74c-3.48,1.9-7.24,3.65-11.5,5.47a55.8,55.8,0,0,1-13.24,3.22A98,98,0,0,1,87,170a68.51,68.51,0,0,1-16-3.12l.41.18A61,61,0,0,1,48.27,156l-.61-.48c-3.12-2-6.1-4.07-8.95-6.13a13.14,13.14,0,0,1-1.86-1.56,25.88,25.88,0,0,1-2.12-2.2c-.69-.85-1.42-1.74-2.08-2.7s-1.24-2-1.78-3c-4-3.24-8.44-9.31-11.44-16.55-.79-1.79-1.43-3.68-2.06-5.56s-1.12-3.82-1.52-5.75a73.57,73.57,0,0,1-1.59-11.15,22.15,22.15,0,0,1,0-3.55,19.36,19.36,0,0,1,.35-2.93c.18-.88.37-1.65.57-2.33s.46-1.27.66-1.76c0-.39,0-.73,0-1A70.29,70.29,0,0,1,18.16,70a67.37,67.37,0,0,1,8.77-19.37A73.53,73.53,0,0,1,45.77,30.7,69.65,69.65,0,0,1,72,19c1.7-.51,3.75-1,6-1.48l4.47-1.11,1.43.1c1.06-.14,2.12-.28,3.19-.38,5.64-.6,11.32-.6,15.38-.69a63.78,63.78,0,0,1,9.61,3,47,47,0,0,1,6.09,2.07c6.44,2.75,9.32,5.55,10.76,7.51a7.58,7.58,0,0,1,1.32,5,56,56,0,0,0-9.79-3.52,93,93,0,0,0-10.6-2l-.65-.07-1,0-.68-.15A188.64,188.64,0,0,0,84.61,26.1a25.37,25.37,0,0,0-4.52.37A40.11,40.11,0,0,0,75,27.7a70,70,0,0,0-10,4c-2.53,1.41-5.32,2.54-7.85,4a27.25,27.25,0,0,0-3.58,2.35A15.23,15.23,0,0,0,50.78,41c-3.38,1.39-8.63,5-13.34,10.15a52.28,52.28,0,0,0-4.21,5.41l.1.14A40.25,40.25,0,0,1,30.47,61a49,49,0,0,0-3.54,8.34c-.55.94-.32-.27-1.16,1.43a18.58,18.58,0,0,1-1.26,6c-.16.86-.3,1.73-.43,2.6a21.88,21.88,0,0,1,0,3.62l-.58.76a77,77,0,0,0-.09,15.48,66.43,66.43,0,0,0,9.36,28.58A81.13,81.13,0,0,0,43,141a58.52,58.52,0,0,0,6.77,6c1.25.89,2.5,1.82,3.85,2.62s2.7,1.6,4.11,2.3c.54.25,1.94,1.09,3.57,2.11.84.46,1.75,1,2.65,1.42a27.25,27.25,0,0,0,2.61,1.11c1.16.31,2.36.47,3.52.71a63.29,63.29,0,0,0,13.31,3c4.42.55,8.57.66,11.8.89a48.09,48.09,0,0,0,10.9-1c3.44-.72,6.68-1.67,9.88-2.62a57,57,0,0,0,15.88-8.27c5.26-3.68,9.69-8,13.09-10.83a14.21,14.21,0,0,0,2-2.28l1.19-1.63c.4-.55.74-1.11,1.08-1.58.77-.78,1.57-1.56,2.29-2.4,1.26-2,1.12-3.8,2.2-5.81a74.7,74.7,0,0,0,7.26-22c1.27-7.36,1.46-13.9,2.29-17.74.16.63.44,2.16.76,3.27s.59,1.82.94.73c.44-1.38.62-2.19,1.1-3.47a38.86,38.86,0,0,0,.07-4c0-1.14-.11-2.33-.19-3.51l-.13-.39v-.49s.07.3.15.74l-.06-.88c-.16-1.49-.24-2.93-.35-4.12a10.2,10.2,0,0,1,0-2.76c.09,0,.32.33.63.82a8.78,8.78,0,0,1,1.36,2.33c0,.16.07.31.11.46A16.74,16.74,0,0,1,169,77.89a45.31,45.31,0,0,1,.34,7.46l.08.15a21.41,21.41,0,0,1-1,8.48s.08,0,.12.1l.06,1.57v.62l.2.22c-.08.18-.14.32-.2.44v.29a.25.25,0,0,0-.15,0c-.07.09-.13.13-.18.13a2.84,2.84,0,0,0-.29,1.17s.08.43.14.86l.11.85-.64,2.34c-.34,1.15-.73,2.3-.73,2.3.25-1.22.68-4.21.94-6.76,0-.45.1-.89.15-1.3,0-.14-.09-.29-.15-.43-.37,1.68-.8,3.41-1.28,5.27v0h0c-.58,2.23-1.25,4.63-2,7.37a34.39,34.39,0,0,0-.59,4.84c.13.05.25.23.36.67.23-.67.56-1.69.84-2.74.26-.89.54-1.79.68-2.47l.27-1.14a7.48,7.48,0,0,1-.15,3.16Zm2.29-16.42c-.06.22-.12.45-.17.68l.07.08c0-.28.07-.53.1-.75Zm-15.24,44.16h0l0,0Zm-1.56-16c-1.65,3.13.59.6-.2,2.87.57-1.92,1.89-3,2.81-4.47-.22-.18-2.5,2.87-1.39.44-.77,1.52-1.46,2.7-1.22,1.16Zm1.22-1.16.78-1.59c-.36.69-.61,1.2-.79,1.59ZM148.42,130c-.29.36-.59.72-.85,1.08a6.93,6.93,0,0,0-1.12,1.86c1-1.47,2.47-2.4,2.78-4Zm-1.2-1.57-.17.43c-.09.23-.19.44-.19.44a2.74,2.74,0,0,0,.29-.27l.62-.59.91-.87ZM140,138.19a8.24,8.24,0,0,0,2-1.59c-.51.43-.94.74-1.17.68,0,0,.25-.29.61-.74l1.33-1.65c.48-.59.91-1.24,1.26-1.7l.56-.77-1.84,2.06-1.93,2c-.93,1.41-1.11,1.84-.8,1.74Zm6-5.25.14-.27.28-.59.4-.87c-.06-.08-.47.47-1.07,1.27s-1.45,1.79-2.25,2.69c1.13-1.16,2.15-2.22,2.5-2.23Zm-4,3.66a19,19,0,0,0,1.48-1.43ZM137,139.88l-.62.6.36.75c1.18-1.35.34-1.19.26-1.34Zm-8.31,5.83,1.43-.91c.48-.32,1-.69,1.48-1-2.06,1.42-.84.06-.95-.25-1.48.58-3.71,2.78-4.78,3.51a10.81,10.81,0,0,0,2.82-1.31Zm-3.85.67,1.44-.92c.53-.32,1-.69,1.4-1l.64-.45a2.6,2.6,0,0,0-1.88.88c-.67.53-1.39,1.26-2.25,1.84l.65-.4Zm-6.2,4.17-1.38.23c-.37.25,0,.33-.71.84a15.37,15.37,0,0,0,3.46-1.32s-.68.16-1.37.26Z"/></g><g id="_25" data-name=" 25" class="cls-3"><text class="cls-4" transform="translate(48.2 94.52) rotate(13)">$25</text></g><g id="RATES_FROM" data-name="RATES FROM" class="cls-3"><text class="cls-5" transform="translate(64.61 52.57) rotate(13)">R<tspan class="cls-6" x="5.99" y="0">A</tspan><tspan x="12.94" y="0">TES F</tspan><tspan class="cls-7" x="37.4" y="0">R</tspan><tspan x="43.22" y="0">OM</tspan></text></g><g id="Rates_depend_on_Tutor_Experience" data-name="Rates depend on Tutor Experience" class="cls-3"><text class="cls-8" transform="translate(53.17 124.54) rotate(13)">R<tspan class="cls-9" x="4.03" y="0">a</tspan><tspan class="cls-10" x="8.15" y="0">t</tspan><tspan class="cls-11" x="10.13" y="0">es depend on</tspan></text><text class="cls-12" transform="translate(51.43 132.65) rotate(13)">T<tspan class="cls-11" x="3.05" y="0">u</tspan><tspan class="cls-13" x="6.81" y="0">t</tspan><tspan class="cls-11" x="8.77" y="0">or Expe</tspan><tspan class="cls-14" x="33.34" y="0">r</tspan><tspan class="cls-9" x="36.04" y="0">ience</tspan></text></g><g id="PER_HOUR" data-name="PER HOUR" class="cls-3"><text class="cls-15" transform="translate(53.68 113.37) rotate(13)">PER HOUR</text></g></g></svg>