<svg xmlns="http://www.w3.org/2000/svg" viewBox="0 0 290 350"><defs><style>.cls-1{fill:#00b1a6;}.cls-2{fill:#3e3531;}.cls-3{fill:#2f2825;}.cls-4{fill:#65b2ef;}.cls-5{fill:#389beb;}.cls-6{fill:#c6805a;}.cls-7{fill:#a06543;}.cls-8{fill:#91c8f4;}.cls-12,.cls-9{isolation:isolate;}.cls-9{opacity:0.2;}.cls-10{fill:#534741;}.cls-11{fill:#ce3a3a;}.cls-12{font-size:28px;fill:#fff;font-family:Futura-CondensedExtraBold, Futura;font-weight:800;}.cls-13{letter-spacing:0em;}.cls-14{letter-spacing:0.02em;}.cls-15{letter-spacing:0.01em;}</style></defs><g id="Wider"><rect id="Rectangle_1626" data-name="Rectangle 1626" class="cls-1" y="0.44" width="290" height="300"/><g id="Group_1125" data-name="Group 1125"><path id="Path_7034" data-name="Path 7034" class="cls-2" d="M104.27,184.94s24,12.93,26.39,32-7.76,26.38-7.76,26.38Z"/><path id="Path_7035" data-name="Path 7035" class="cls-3" d="M161.48,185.61s-18.39,20.17-14.29,38.91,16.07,22.32,16.07,22.32Z"/><g id="Group_1124" data-name="Group 1124"><g id="Group_1119" data-name="Group 1119"><path id="Path_7036" data-name="Path 7036" class="cls-4" d="M116.13,242.6c-21.52,5-34.65,8.21-37.93,16.43-5.52,13.83,0,41.42,0,41.42h59.74V240Z"/><path id="Path_7037" data-name="Path 7037" class="cls-5" d="M159.75,242.6c21.53,5,34.65,8.21,37.93,16.43,5.53,13.83,0,41.42,0,41.42H137.94V240Z"/></g><g id="Group_1120" data-name="Group 1120"><path id="Path_7038" data-name="Path 7038" class="cls-6" d="M125.09,206c8.06,12.95-2.18,28.82-8.87,36.14s11,35,21.72,35v-66.9l-2.77-5.94Z"/><path id="Path_7039" data-name="Path 7039" class="cls-7" d="M150.79,206c-8.06,12.95,2.19,28.82,8.87,36.14s-11,35-21.72,35v-66.9l2.77-5.94Z"/></g><g id="Group_1121" data-name="Group 1121"><path id="Path_7040" data-name="Path 7040" class="cls-8" d="M137.94,274.43a8.37,8.37,0,0,1-3.85-1.27,27.07,27.07,0,0,1-4-3,53.86,53.86,0,0,1-7-7.81,54.56,54.56,0,0,1-5.59-9.11,25.45,25.45,0,0,1-1.85-5,9.07,9.07,0,0,1,0-5.31,8.75,8.75,0,0,0-1.5,5.48,24.13,24.13,0,0,0,.85,5.73,43.51,43.51,0,0,0,4.57,10.52,45.85,45.85,0,0,0,7.07,9.21,26.35,26.35,0,0,0,4.77,3.78,13.34,13.34,0,0,0,6.55,2.15h0v-5.39Z"/><path id="Path_7041" data-name="Path 7041" class="cls-4" d="M160.25,243a9.15,9.15,0,0,1,0,5.31,25.63,25.63,0,0,1-1.86,5,54.5,54.5,0,0,1-5.58,9.11,53.35,53.35,0,0,1-7.06,7.81c-2.46,2.25-5.58,4.28-7.83,4.26v5.39a13.43,13.43,0,0,0,6.55-2.14,27.7,27.7,0,0,0,4.78-3.78,46.51,46.51,0,0,0,7.07-9.21,43.48,43.48,0,0,0,4.57-10.54,24,24,0,0,0,.85-5.72A8.73,8.73,0,0,0,160.25,243Z"/></g><path id="Path_7042" data-name="Path 7042" class="cls-9" d="M140.71,204.29l-2.77,6-2.77-6L125.09,206l0,0L148.48,222a20.86,20.86,0,0,1,2.31-16Z"/><g id="Group_1123" data-name="Group 1123"><path id="Path_7043" data-name="Path 7043" class="cls-2" d="M218.29,240.39c-1.93-17.56-18.41-33.18-21-58.89S184,117.91,166.9,100.14c-16.15-16.76-24.27-10.28-28.41-6.64a4.83,4.83,0,0,0-.56-.83v14.11c6.15.21,20.62.64,32.43,21.2a37.22,37.22,0,0,1,0,38.07c-5.56-2.13-7.86-8.63-7.86-8.63l-1.23.85.42-2.19-1.18,1.43c2.66-5.14,0-10.87,0-10.87a24.71,24.71,0,0,1-1.39,7.61c3.79,10.24,6.31,19.86,5.2,25.54-3.23,16.72-12.84,36-8.13,58.46s5.14,37.48-15.21,40c0,0,7.11,2.57,13.94.65a16.3,16.3,0,0,1-8.37,3.85s12.85,1.28,19.27-4.93c0,0-2.57,5.79-6.42,6.21,0,0,12.2,1.72,19.27-3.63l-1.93,3.21s9.21-1.07,14.34-6.21c0,0,.22,4.71-7.7,7.06,0,0,7.7,1.51,16.7-7.28l-2.57,4.71s12-9.85,14.13-23.13a12.94,12.94,0,0,1,0,10.28S220.22,258,218.29,240.39Z"/><path id="Path_7044" data-name="Path 7044" class="cls-10" d="M117,143s-1.05,6.85-1.33,11.33-2.86,5.89-2.86,5.89a11.42,11.42,0,0,0,.86-4.66,15.12,15.12,0,0,1-3.62,5.86,16.16,16.16,0,0,0,1.33-5.09l-1.42,3.9c-3,3.33-4.83,3.77-4.83,3.77s-8.48-22,0-38.54,26.64-18.85,32.79-18.63V92.67c-1.68-2.09-7.38-6.82-20.93,1.69-16.7,10.49-22.48,32.12-30,50.11s-2.15,41.67-8.14,66.77S65.83,254.1,75,272.09l-.64-6.64S78.89,277,83.17,280L81,273.81h0c.09.26,2.34,6.48,11.56,9.41l-3.42-5.13s8.56,8.78,16.49,9.2l-1.73-2.78s7.51,5.57,12.64,5.35L113.79,286a16.55,16.55,0,0,0,10.49,2.78l-3.35-3.42s5.92,4.06,12.56,2.14c0,0-9.42-3.64-6.85-21.2s1.71-36.83-2.14-46.68S109,183.31,110.58,171c.45-3.41,2.87-9.44,6.13-16.38C116.53,149.78,117,143,117,143Z"/><g id="Group_1122" data-name="Group 1122"><path id="Path_7045" data-name="Path 7045" class="cls-6" d="M137.93,113.63c-29.69,0-31.33,17.8-33.33,29s1,23.51,2.1,29.89-.19,10.23,3.36,17.16,16.25,21.13,27.87,21.13Z"/><path id="Path_7046" data-name="Path 7046" class="cls-7" d="M137.93,113.63c29.68,0,31.32,17.8,33.32,29s-1,23.51-2.09,29.89.18,10.23-3.37,17.16-16.24,21.13-27.86,21.13Z"/></g><path id="Path_7047" data-name="Path 7047" d="M137.93,156v1.33C138,156.92,138,156.47,137.93,156Z"/><path id="Path_7049" data-name="Path 7049" class="cls-10" d="M105.14,125.4c-8.48,16.49,0,38.55,0,38.55s1.78-.45,4.83-3.78l1.42-3.9a16,16,0,0,1-1.33,5.09,15.08,15.08,0,0,0,3.62-5.85,11.48,11.48,0,0,1-.86,4.66s2.57-1.42,2.86-5.9S117,143,117,143s-.47,6.82-.3,11.66a22.6,22.6,0,0,0,.3,3.28l.86-1.24.66.76.57-.95,1.05,1.24a78.77,78.77,0,0,1-.74-8.68,37.63,37.63,0,0,1,.74-9.41,43,43,0,0,0,.21,7.52,56.82,56.82,0,0,0,2.36,11.32l.48-.95,1,.95v-2.66l1.81,2.57a64.1,64.1,0,0,1-.67-15s-.38,10.27,4,15.32a9,9,0,0,1,0-5.05s.86,3.33,2.66,4.48l-.57-2.77a10,10,0,0,0,2,2.1,22.73,22.73,0,0,1-1.34-5.64l2.1,4.59V149.7l1.23,5.9A63.65,63.65,0,0,0,136.52,145,98.15,98.15,0,0,1,137.93,156v-49.2C131.78,106.56,113.62,108.92,105.14,125.4Z"/><path id="Path_7050" data-name="Path 7050" class="cls-2" d="M170.36,128c-11.82-20.55-26.28-21-32.43-21.19V156c0,.48,0,.93,0,1.33l1.06-2.09.51,3.33.64-2.19.76,1.9.47-.86,1.43,1.43s.67-18.65-.57-29.5c0,0,8.47,14.94,7.61,27.31,0,0,3.17-5.61.06-14.65,0,0,3.27,3.71,2.32,14,0,0,1-.67,1.8-4.86a8.38,8.38,0,0,1,.39,4.38s1.52-2,2.43-7.11a51.7,51.7,0,0,0,.51-12.11,128,128,0,0,1,.89,15.66c.3.77.58,1.53.87,2.3a24.42,24.42,0,0,0,1.39-7.61s2.66,5.73,0,10.87l1.18-1.42-.42,2.19,1.24-.86s2.29,6.5,7.85,8.63A37.22,37.22,0,0,0,170.36,128Z"/></g></g></g><path id="Path_7051" data-name="Path 7051" class="cls-2" d="M137.93,106.78a52.71,52.71,0,0,0-13,8.34,47.71,47.71,0,0,0-9.77,11.56,32.39,32.39,0,0,0-1.82,3.32l-.88,1.68c-.26.58-.45,1.19-.7,1.77-.46,1.18-1,2.35-1.4,3.55l-1,3.68-.53,1.85-.34,1.89-.72,3.81c-.42,2.55-.51,5.15-.91,7.76-.24-2.6-.42-5.24-.47-7.88l.28-4,.16-2,.39-2a43.79,43.79,0,0,1,5.58-15,40.77,40.77,0,0,1,10.81-11.81A37.06,37.06,0,0,1,137.93,106.78Z"/><path id="Path_7052" data-name="Path 7052" class="cls-2" d="M137.93,109.79a43.43,43.43,0,0,0-11.34,16.39,58.14,58.14,0,0,0-2.75,9.6c-.39,1.64-.52,3.33-.84,5s-.34,3.39-.63,5.13c-.33-1.7-.59-3.43-.76-5.18a42,42,0,0,1,0-5.26A36.39,36.39,0,0,1,124,125.14a32.68,32.68,0,0,1,5.55-9.08A22.81,22.81,0,0,1,137.93,109.79Z"/><path id="Path_7053" data-name="Path 7053" class="cls-2" d="M137.93,117.85a62,62,0,0,0-2.35,7.65c-.63,2.56-1.19,5.14-1.65,7.73s-.9,5.21-1.4,7.84-.87,5.28-1.52,8a39.91,39.91,0,0,1-.67-8.16,49.6,49.6,0,0,1,.82-8.16,39.7,39.7,0,0,1,2.34-7.91A20.61,20.61,0,0,1,137.93,117.85Z"/><path id="Path_7054" data-name="Path 7054" class="cls-3" d="M139.47,112.2a17,17,0,0,1,7.84,4.66,26,26,0,0,1,5.24,7.63,32.31,32.31,0,0,1,2.47,8.84c.2,1.51.22,3,.29,4.54-.08,1.52-.17,3-.38,4.53-.42-1.47-.7-2.93-1-4.37l-1.08-4.27a57.07,57.07,0,0,0-2.88-8.11A33,33,0,0,0,139.47,112.2Z"/><path id="Path_7055" data-name="Path 7055" class="cls-3" d="M143.7,110.63A32.69,32.69,0,0,1,156.63,119a44.38,44.38,0,0,1,8.74,12.89,53.92,53.92,0,0,1,3.95,15c.36,2.56.28,5.16.39,7.71-.19,2.57-.36,5.13-.67,7.66-.33-2.55-.44-5.08-.71-7.59-.44-2.49-.66-5-1.19-7.44a66.08,66.08,0,0,0-1.82-7.24,57.56,57.56,0,0,0-2.53-7A54,54,0,0,0,155,120.44,44.79,44.79,0,0,0,143.7,110.63Z"/><path id="Path_7056" data-name="Path 7056" class="cls-2" d="M101.37,169.55a26,26,0,0,0,1.45,14.21,45.66,45.66,0,0,0,3,6.49l3.53,6.5C114,205.48,118,215,119.55,225.23a59.63,59.63,0,0,1,.14,15.45l-.64,3.82-.91,3.75c-.55,2.4-1.25,4.59-1.61,6.95a40.73,40.73,0,0,0-.13,14.06,29,29,0,0,0,5.75,13.12c-4.05-3-6.74-7.59-8.43-12.42a38.74,38.74,0,0,1-1.56-15.32,58.84,58.84,0,0,1,1.18-7.58l.65-3.47.39-3.51A57.46,57.46,0,0,0,114,226c-1.27-9.37-4.77-18.39-8.62-27.38-.95-2.27-2-4.49-2.91-6.83a47.12,47.12,0,0,1-2.28-7.33C99.21,179.51,99.09,174.06,101.37,169.55Z"/><path id="Path_7057" data-name="Path 7057" class="cls-2" d="M95.75,200.22a46.57,46.57,0,0,1,9.19,19.22,38.61,38.61,0,0,1,.79,11,34.37,34.37,0,0,1-3,10.93,28.62,28.62,0,0,0-2.49,9,44.78,44.78,0,0,0,.26,9.75,83.73,83.73,0,0,0,5.83,19.64,46.7,46.7,0,0,1-10.14-18.74,39.45,39.45,0,0,1-1.28-11A32.4,32.4,0,0,1,97.7,239a35.3,35.3,0,0,0,2.91-18.85A82.78,82.78,0,0,0,95.75,200.22Z"/><path id="Path_7058" data-name="Path 7058" class="cls-2" d="M134.13,94.36a58,58,0,0,0-12.9,7.68,65.67,65.67,0,0,0-21,29.71c-.82,2.3-1.35,4.7-2.08,7L98,139a133.85,133.85,0,0,0-4.26,16.72A84.57,84.57,0,0,0,92,172.65c.09,1.38.07,2.79.27,4.14l.25,2c.07.77.22,1.7.23,2.5a52.89,52.89,0,0,1-.68,9.32c-.9,6-2.13,11.72-3.35,17.46C86.34,219.57,84,231,83.62,242.57A67.81,67.81,0,0,0,85,259.74a38.44,38.44,0,0,0,7.44,15.59,35.79,35.79,0,0,1-9.36-15,60.31,60.31,0,0,1-3-17.72c-.4-12,1.44-23.87,3.52-35.46,1-5.8,2.19-11.56,3-17.24a47.7,47.7,0,0,0,.54-8.27c0-.66-.13-1.19-.2-1.88l-.29-2.34c-.21-1.57-.18-3.11-.26-4.67.11-12.37,3-24,7.06-35.37l-.07.22c.84-2.48,1.55-5,2.55-7.4a67.83,67.83,0,0,1,3.35-7,59.55,59.55,0,0,1,9-12.65,57,57,0,0,1,11.89-9.84A49,49,0,0,1,134.13,94.36Z"/><path id="Path_7059" data-name="Path 7059" class="cls-3" d="M143.7,100.92a27.25,27.25,0,0,1,21.75,4.67,26.21,26.21,0,0,1,7.21,9.26c.89,1.81,1.57,3.54,2.22,5.23L177,125.2c2.88,6.8,5.68,13.73,8.11,20.84A154.45,154.45,0,0,1,190.6,168a151.61,151.61,0,0,1,2,22.51c0,7.64-.41,14.77.39,21.93A60.46,60.46,0,0,0,199,233a44.16,44.16,0,0,0,13.85,16.67c-6.76-3.22-12.23-8.91-16.26-15.31A58.43,58.43,0,0,1,188.64,213c-1.39-7.52-1.07-15.28-1.37-22.44a154.81,154.81,0,0,0-2.23-21.7c-2.26-14.4-7.17-28.15-12.18-42.13l-1.8-5.3c-.57-1.81-1.16-3.55-1.77-5.13a23.14,23.14,0,0,0-5.64-8.64C158.58,102.83,151.06,100.73,143.7,100.92Z"/><path id="Path_7060" data-name="Path 7060" class="cls-3" d="M175.61,162.24c6.23,7.31,9.37,17.28,9.2,27.19a42,42,0,0,1-.75,7.42c-.25,1.31-.29,2.25-.42,3.31,0,.53-.13,1.05-.15,1.57l.09,1.62a46.54,46.54,0,0,0,2.71,13.09c1.33,4.41,3.05,8.78,4.68,13.24s3.21,9,4.44,13.69a60,60,0,0,1,2.08,14.48,29,29,0,0,1-3.72,14,34.25,34.25,0,0,0,.95-13.81,74.25,74.25,0,0,0-3.51-13.34c-3.18-8.74-7.28-17.24-10.29-26.53a49.17,49.17,0,0,1-2.66-14.72v-1.93c.06-.65.19-1.31.29-2,.22-1.29.43-2.7.69-3.71a55.45,55.45,0,0,0,1.19-6.65A49.7,49.7,0,0,0,175.61,162.24Z"/><path id="Path_7061" data-name="Path 7061" class="cls-3" d="M171.93,189.66a77.58,77.58,0,0,0-5.77,21.3c-.24,1.78-.15,3.55-.23,5.29a33.56,33.56,0,0,0,2,10c.34.76.76,1.49,1.13,2.24l.57,1.11.75,1,1.45,2.07,1.8,2.24c1.22,1.48,2.36,3,3.48,4.61a50.75,50.75,0,0,1,5.66,10.32,27.57,27.57,0,0,1,1.61,5.85,19.17,19.17,0,0,1-.17,6.14,18.84,18.84,0,0,1-6,10c1.78-3.34,3.28-6.81,3.22-10.3a20.19,20.19,0,0,0-2.71-9.87,62.18,62.18,0,0,0-5.95-9c-1.15-1.42-2.22-2.89-3.44-4.28l-1.78-2.11-1.86-2.51-.89-1.28-.69-1.4c-.45-.94-.93-1.87-1.33-2.83a29.47,29.47,0,0,1-1.51-6,32.52,32.52,0,0,1,.52-12A47.81,47.81,0,0,1,171.93,189.66Z"/><path id="Path_7062" data-name="Path 7062" class="cls-3" d="M160.61,228.78a40,40,0,0,1,7.44,11.11,42.73,42.73,0,0,1,3.87,13,29.17,29.17,0,0,1-1.3,13.87,19.3,19.3,0,0,1-8.85,10.36,32.12,32.12,0,0,0,4.6-11.52,41.6,41.6,0,0,0-.06-12C165.36,245.47,162.79,237.42,160.61,228.78Z"/><rect id="Rectangle_1625" data-name="Rectangle 1625" class="cls-11" y="300" width="290" height="50"/><text class="cls-12" transform="translate(14.25 332.98)">P<tspan class="cls-13" x="16" y="0">r</tspan><tspan x="26.95" y="0">ima</tspan><tspan class="cls-14" x="73.92" y="0">r</tspan><tspan x="85.52" y="0">y/Elemen</tspan><tspan class="cls-15" x="208.96" y="0">t</tspan><tspan x="218.74" y="0">a</tspan><tspan class="cls-14" x="234.46" y="0">r</tspan><tspan x="246.05" y="0">y</tspan></text></g></svg>