<svg xmlns="http://www.w3.org/2000/svg" viewBox="0 0 290 300"><defs><style>.cls-1{fill:#ed6a0f;}.cls-2{fill:#b80000;}.cls-3{fill:#d80000;}.cls-4{fill:#cacaca;}.cls-5{fill:#e2ba93;}.cls-6{fill:#df0000;}.cls-7{fill:red;}.cls-8{fill:#f1f1f1;}.cls-9{fill:#eec9a5;}.cls-10{isolation:isolate;opacity:0.2;}.cls-11{fill:#723a1e;}.cls-12{fill:#994e28;}.cls-13{fill:#a66443;}.cls-14{fill:#7f4c33;}</style></defs><g id="Wider"><rect id="Rectangle_1629" data-name="Rectangle 1629" class="cls-1" y="0.44" width="290" height="300"/><path id="Path_6998" data-name="Path 6998" class="cls-2" d="M165.23,234.12c1.76-1.76,2.41-4.57,2.59-7.22,1.34.91,3,2,5.08,3.24-.57,3.4-1.66,7.44-3.81,9.58-3.59,3.59-23.48,5.35-28.65,5.75v-5.94C148.17,238.8,162.26,237.08,165.23,234.12Z"/><path id="Path_6999" data-name="Path 6999" class="cls-3" d="M169.4,239.37c1.94-2.21,3-6,3.51-9.24a174.34,174.34,0,0,0,21.72,11c20.41,8.75,29.64,22.36,30.37,59.29H197.59C196,261.71,176.87,244.59,169.4,239.37Z"/><path id="Path_7000" data-name="Path 7000" class="cls-4" d="M140.44,245.47c5.17-.4,25.06-2.16,28.65-5.75.11-.1.2-.24.31-.35,7.47,5.22,26.64,22.34,28.19,61.08H140.44Z"/><path id="Path_7001" data-name="Path 7001" class="cls-5" d="M167.82,226.9s-9.64-23.94-10.37-30.25l-17-6v48.83s20.79-.91,25.58-6.38A14.74,14.74,0,0,0,167.82,226.9Z"/><path id="Path_7002" data-name="Path 7002" class="cls-6" d="M115.66,234.12c-1.76-1.76-2.41-4.57-2.59-7.22-1.34.91-3,2-5.08,3.24.57,3.4,1.66,7.44,3.81,9.58,3.58,3.59,23.47,5.35,28.64,5.75v-5.94C132.71,238.8,118.62,237.08,115.66,234.12Z"/><path id="Path_7003" data-name="Path 7003" class="cls-7" d="M111.49,239.37c-1.94-2.21-3-6-3.5-9.24a175.16,175.16,0,0,1-21.73,11c-20.41,8.75-29.65,22.36-30.37,59.29H83.3C84.85,261.71,104,244.59,111.49,239.37Z"/><path id="Path_7004" data-name="Path 7004" class="cls-8" d="M140.44,245.47c-5.17-.4-25.06-2.16-28.64-5.75-.11-.1-.2-.24-.31-.35-7.46,5.22-26.64,22.34-28.19,61.08h57.15Z"/><path id="Path_7005" data-name="Path 7005" class="cls-9" d="M113.07,226.9s9.63-23.94,10.36-30.25l17-6v48.83s-20.78-.91-25.57-6.38A14.74,14.74,0,0,1,113.07,226.9Z"/><path id="Path_7006" data-name="Path 7006" class="cls-10" d="M157.45,196.65l-17-6-10.81,3.79-2.88,7,40.89,25C166.38,223.31,158.13,202.48,157.45,196.65Z"/><g id="Group_1116" data-name="Group 1116"><g id="Group_1115" data-name="Group 1115"><g id="Group_1113" data-name="Group 1113"><path id="Path_7007" data-name="Path 7007" class="cls-9" d="M140.44,95.29c-37.42,0-37.71,22.69-38.7,35.16s3.26,27.63,3.69,38.84,2.41,15.71,12,24.73,12.62,10.29,23,10.29Z"/><path id="Path_7008" data-name="Path 7008" class="cls-5" d="M140.44,95.29c37.43,0,37.71,22.69,38.7,35.16s-3.26,27.63-3.68,38.84S173.05,185,163.41,194s-12.62,10.29-23,10.29Z"/></g><g id="Group_1114" data-name="Group 1114"><path id="Path_7009" data-name="Path 7009" class="cls-5" d="M177.76,135.41s4.26-7.51,7.8-4.67-.42,9.77-1.55,19-3.55,13.83-8.94,14.5Z"/><path id="Path_7010" data-name="Path 7010" class="cls-9" d="M103.12,135.41s-4.25-7.51-7.79-4.67.42,9.77,1.56,19,3.54,13.83,8.92,14.5Z"/></g></g><path id="Path_7011" data-name="Path 7011" class="cls-11" d="M190.58,103.09c4-11.91-7.66-15.74-7.66-15.74-2.13-12.9-13.18-13.6-13.18-13.6-3.55-8.22-16-7.52-16-7.52a21.83,21.83,0,0,0-13.28-7.31v5c.59.11,1.18.23,1.76.37a22.63,22.63,0,0,1,3.91,1.36,18.52,18.52,0,0,1,1.82,1,12.1,12.1,0,0,1,1.68,1.18c-1.31-.36-2.61-.64-3.9-.88s-2.58-.41-3.87-.53l-.48,0-.48,0-.43,0v6.41l1-.36c1.17-.41,2.34-.82,3.53-1.19a40.44,40.44,0,0,1,7.38-1.59l1-.08.48,0h1.43l1,0a21,21,0,0,1,3.78.59,17,17,0,0,1,3.52,1.41,16.65,16.65,0,0,1,3,2.17l-.83-.42c-.13-.07-.26-.15-.4-.21l-.42-.18-.42-.19-.42-.17-.85-.31c-.14-.06-.29-.09-.43-.14l-.44-.12-.43-.13-.43-.09-.44-.1c-.14,0-.28-.07-.43-.09l-.88-.13a21,21,0,0,0-3.54-.12,27.8,27.8,0,0,0-3.51.43l-.87.18c-.29.05-.58.13-.86.2l-.44.1-.43.11-.86.24c-1.15.33-2.29.69-3.42,1.09s-2.27.82-3.4,1.26l-1.89.72v2.57q2.17-1,4.42-1.87a52.14,52.14,0,0,1,5.74-1.77l.73-.16.74-.15c.5-.09,1-.19,1.5-.26,1-.16,2-.26,3-.32a26.38,26.38,0,0,1,3.08,0,19.9,19.9,0,0,1,3.07.43,17.5,17.5,0,0,1,3,1,13.71,13.71,0,0,1,2.77,1.61A10.91,10.91,0,0,1,170.77,79c.16.21.3.45.45.68a5.06,5.06,0,0,1,.38.73l.33.76a5.94,5.94,0,0,1,.24.79,7.69,7.69,0,0,1,.27,1.64,8.3,8.3,0,0,1-.08,1.65,10.52,10.52,0,0,1-.86,3.05,12.8,12.8,0,0,1-1.62,2.65,16.89,16.89,0,0,1-2.11,2.2,23.65,23.65,0,0,1-5,3.24,28,28,0,0,1-2.71,1.17c-.46.18-.92.34-1.39.48a13.42,13.42,0,0,1-1.41.41c.9-.38,1.78-.8,2.64-1.25s1.69-.93,2.5-1.45a25.17,25.17,0,0,0,4.46-3.56,13.28,13.28,0,0,0,3-4.56,9.15,9.15,0,0,0,.56-2.59,5.9,5.9,0,0,0,0-1.26,5.73,5.73,0,0,0-.26-1.23c-.06-.2-.14-.39-.22-.59s-.17-.39-.27-.57l-.33-.55a3.68,3.68,0,0,0-.37-.51,8.92,8.92,0,0,0-1.86-1.77,12.89,12.89,0,0,0-4.88-2,21.84,21.84,0,0,0-5.47-.3c-.93.07-1.86.16-2.78.31-.45.07-.92.16-1.38.25l-.68.14-.69.16a49.15,49.15,0,0,0-5.43,1.64c-1.78.63-3.54,1.38-5.28,2.17l-.06,0v2.25l.13-.05a44.2,44.2,0,0,1,6.18-1.71,30.23,30.23,0,0,1,6.5-.63,15.59,15.59,0,0,1,1.67.1,16,16,0,0,1,1.69.25A11.18,11.18,0,0,1,160,82.38a7.19,7.19,0,0,1,1.52,1.23,5.06,5.06,0,0,1,1.37,3.84,6.2,6.2,0,0,1-.4,1.9,10,10,0,0,1-.8,1.64c-.16.25-.32.48-.48.72s-.35.45-.52.68a14.79,14.79,0,0,1-2.44,2.37,18,18,0,0,1-5.92,2.89,21.42,21.42,0,0,1-3.17.63,18,18,0,0,1-3.2.13,29.81,29.81,0,0,0,5.91-2,19.37,19.37,0,0,0,5-3.27l.52-.51c.17-.18.34-.35.5-.54s.31-.36.46-.55.29-.38.43-.58.27-.4.39-.6.25-.41.36-.62a7,7,0,0,0,.53-1.22,3,3,0,0,0-1.47-3.82,8.57,8.57,0,0,0-2.54-1,17.61,17.61,0,0,0-2.9-.41c-1-.07-2-.06-3,0q-.76,0-1.53.09c-.51,0-1,.07-1.53.13-2,.2-4.1.52-6.16.9l-.47.08v1.09a13.61,13.61,0,0,1,2.63.14,20.7,20.7,0,0,1,2.71.57,12.84,12.84,0,0,1,1.36.47,7.06,7.06,0,0,1,1.34.75l.32.27a2.2,2.2,0,0,1,.3.31l.15.18.13.2a3.42,3.42,0,0,1,.21.43,2.62,2.62,0,0,1,.16,1,2.92,2.92,0,0,1-.17.88,4.83,4.83,0,0,1-.79,1.35,7.93,7.93,0,0,1-1,1,17.44,17.44,0,0,1-2.16,1.66c-.75.49-1.51.95-2.29,1.37s-1.58.83-2.37,1.21l-.54.25v3.62c9.78-.3,12.47-1.82,17-1.4A15.79,15.79,0,0,1,171,115c.67,10.54,5.68,12.47,7.37,25.09S177,160.94,177,160.94c3.26-5.68,6.66-25.52,11.06-29.21s1.27-8.08,5-16.16S190.58,103.09,190.58,103.09Z"/><path id="Path_7012" data-name="Path 7012" class="cls-12" d="M138.55,98.42c.64-.39,1.27-.79,1.89-1.19v-9.4h-.05a18.55,18.55,0,0,0-2.44.41,25.5,25.5,0,0,0-4.72,1.68c-.77.35-1.53.74-2.28,1.14s-1.48.84-2.21,1.29c-1.45.9-2.87,1.88-4.25,2.91s-2.73,2.12-4,3.24-2.61,2.29-3.88,3.48c-2.53,2.38-4.95,4.88-7.29,7.47s-4.59,5.26-6.74,8q-1.62,2.07-3.15,4.21-.77,1.07-1.5,2.16c-.49.74-1,1.47-1.46,2.21.35-.81.72-1.61,1.11-2.41s.79-1.57,1.22-2.35c.84-1.56,1.75-3.08,2.7-4.58a95.69,95.69,0,0,1,6.21-8.63c.56-.69,1.12-1.38,1.69-2s1.16-1.35,1.76-2c1.18-1.33,2.41-2.62,3.67-3.88s2.57-2.47,3.91-3.64,2.74-2.31,4.17-3.39,2.93-2.08,4.48-3a41.64,41.64,0,0,1,4.83-2.5,27,27,0,0,1,5.26-1.66,18.88,18.88,0,0,1,3-.34V84.52l-2.61.5-3.11.65c.94-.49,1.9-1,2.88-1.36s1.88-.77,2.84-1.11V80.94a107.58,107.58,0,0,0-10.1,5.41c-6.61,4-12.91,8.54-19.15,13.21a122.45,122.45,0,0,1,18-15l1.23-.82,1.24-.8q1.25-.78,2.52-1.53,2.55-1.5,5.21-2.81l1-.49V75.55l-1.53.59c-1.15.44-2.3.87-3.47,1.29s-2.36.8-3.57,1.14l-.91.25L130,79l-1.86.36a36.18,36.18,0,0,1-3.75.44,38.37,38.37,0,0,1-7.5-.19c-1.23-.16-2.46-.39-3.67-.67a24.34,24.34,0,0,1-3.55-1.11,48.2,48.2,0,0,0,7.3.46,52.41,52.41,0,0,0,7.19-.58l.88-.14.44-.08.44-.09.88-.17.44-.09.43-.11,1.74-.43.85-.24.85-.27c1.13-.37,2.27-.77,3.4-1.2s2.27-.86,3.41-1.3l2.5-.94V66.27h-.05l-.48,0c-.32,0-.64,0-1,0h-1a37.42,37.42,0,0,0-3.82.17c-.32,0-.64,0-.95.09l-.95.12c-.63.1-1.27.18-1.89.31l-.47.09-.24,0-.23,0-.94.21-.94.23c-.31.08-.63.15-.94.25s-.62.18-.93.26l-.24.07-.22.08-.47.15c-.31.1-.63.18-.94.29l-.92.33-.48.16-.46.17-.94.35a4.52,4.52,0,0,0-.47.18l-.47.18c-.31.12-.63.24-1,.34q.38-.36.75-.69c.26-.23.51-.46.78-.67l.81-.62.41-.31.43-.28.87-.55a3.91,3.91,0,0,1,.44-.26l.45-.26c.6-.34,1.22-.63,1.85-.92a25.51,25.51,0,0,1,3.91-1.37c.67-.18,1.36-.31,2-.44s1.38-.22,2.07-.27a24.92,24.92,0,0,1,6.51.26v-5c-16.3-2.55-34.63,11.71-34.63,11.71a60.31,60.31,0,0,0-23,39.83c-1.84,3.26-5.24.57-5.24.57.71,5.67,4.54,4,4.54,4-2,1.28-.29,5-.29,5-2.55,3.68-5.53.28-5.53.28,1.42,4.67,5.53,3.4,5.53,3.4-1,3.54,1.14,5.25,1.14,5.25-3.4,7.08-9.35,3.39-9.35,3.39,6.23,8.37,11.48,4,11.48,4,.42,3.82-5.1,10.89-5.1,10.89a18.39,18.39,0,0,0,6.09-4.23,11.83,11.83,0,0,1-2.27,5.53c3.55-.71,4.4-3,4.4-3a7.3,7.3,0,0,1-4.4,5.67c5.39.43,11.77-4,11.77-4,.66,6.84,6.66,13.77,6.66,13.77-2.55-12.05,2.84-18.43,2.84-18.43,18.71-17.58,21.54-26.51,22.11-32.6s4-8.4,12.9-8.65h.34V97.61C139.82,97.89,139.19,98.17,138.55,98.42Z"/><path id="Path_7013" data-name="Path 7013" class="cls-13" d="M129.62,102.81a8.32,8.32,0,0,0-1.75.85,11.19,11.19,0,0,0-3.88,4.06,16.16,16.16,0,0,0-1.89,7.13l0,.48c0,.18,0,.36,0,.54l-.07.54-.09.52a16.13,16.13,0,0,1-.54,2,25.11,25.11,0,0,1-1.63,3.76,43.77,43.77,0,0,1-4.49,6.7c-.83,1-1.7,2-2.59,3s-1.83,1.94-2.78,2.86a66.3,66.3,0,0,1-6,5.22A51.46,51.46,0,0,1,97.21,145a30.3,30.3,0,0,1-3.59,1.72,15,15,0,0,1-3.83,1,15.78,15.78,0,0,0,1.8-.78c.57-.29,1.14-.61,1.69-.94s1.1-.68,1.64-1,1.06-.73,1.58-1.11c2.08-1.54,4.07-3.2,6-4.92l1.43-1.31,1.4-1.34c.92-.9,1.83-1.81,2.72-2.74s1.76-1.88,2.61-2.84,1.68-1.94,2.47-2.95,1.57-2,2.3-3.06,1.42-2.1,2-3.19a24.66,24.66,0,0,0,1.65-3.34,13.32,13.32,0,0,0,.57-1.72l.11-.44.09-.43c0-.15,0-.29.07-.43l.06-.5c0-.34.09-.68.16-1l.1-.51c0-.17.07-.33.11-.5l.12-.5.14-.5c.09-.33.21-.66.32-1A14.21,14.21,0,0,1,122.9,107a11.35,11.35,0,0,1,3-2.79A9.13,9.13,0,0,1,129.62,102.81Z"/><path id="Path_7014" data-name="Path 7014" class="cls-13" d="M133.9,99a5,5,0,0,0-2-.33,9.79,9.79,0,0,0-1.94.23l-.47.13-.47.13c-.31.11-.61.2-.91.32l-.9.38-.88.43-.43.23-.42.24-.43.24-.41.26-.83.52-.79.57c-.54.37-1,.79-1.57,1.18l-.39.31-.38.32-.75.63-.38.32-.36.33-.73.66-.37.33-.35.34-.71.69-.71.68-.69.72-.69.7-.34.36-.33.36c-.45.5-.9,1-1.35,1.46-.23.24-.44.5-.66.75l-.65.75c-.89,1-1.73,2-2.58,3-3.39,4.09-6.61,8.35-9.77,12.66-.8,1.08-1.56,2.17-2.36,3.25s-1.57,2.17-2.36,3.26c-1.6,2.16-3.14,4.36-4.79,6.51.57-1.23,1.17-2.44,1.78-3.64.3-.61.6-1.21.92-1.8l1-1.78,1-1.77.5-.88.52-.87c.34-.58.68-1.16,1-1.74s.69-1.16,1.06-1.72a122.72,122.72,0,0,1,9.44-13.2c.89-1,1.75-2.08,2.67-3.08l.69-.75c.23-.25.45-.5.69-.75l1.44-1.46.35-.36.38-.35.74-.71.74-.7.78-.67c1-.92,2.09-1.77,3.19-2.59l.84-.6.42-.3.43-.28c.58-.37,1.15-.76,1.76-1.09l.9-.51.93-.45.47-.23.48-.2.48-.2a4.78,4.78,0,0,1,.48-.19l1-.34,1-.27c.33-.08.68-.13,1-.2l.52-.06.52,0a9.61,9.61,0,0,1,2.08.1l.51.12c.17,0,.33.09.49.15A3.86,3.86,0,0,1,133.9,99Z"/><path id="Path_7015" data-name="Path 7015" class="cls-14" d="M162.65,99.4c1.08-.27,2.11-.56,3.11-.9a21.35,21.35,0,0,0,2.86-1.15,10.5,10.5,0,0,0,4.32-3.57,10.67,10.67,0,0,0,1.58-5.39,26.72,26.72,0,0,0,0-3.1l0-.8-.06-.8c0-.27-.05-.55-.07-.82s-.05-.55-.06-.83c.16.23.31.47.45.71s.27.48.4.73.24.5.36.75.21.52.32.78a14.41,14.41,0,0,1,.84,3.3c0,.28.06.57.08.86s0,.3,0,.44a3.38,3.38,0,0,1,0,.45v.44c0,.15,0,.3,0,.45l-.06.45a3.35,3.35,0,0,1-.07.44,9.16,9.16,0,0,1-4,6,10.5,10.5,0,0,1-1.58.86l-.41.18-.41.15c-.27.1-.55.19-.83.27a13.55,13.55,0,0,1-5.07.39A8.49,8.49,0,0,1,162.65,99.4Z"/><path id="Path_7016" data-name="Path 7016" class="cls-14" d="M171.45,101.53a14.62,14.62,0,0,0,5.82,3.71l.4.14c.13.05.27.08.4.12s.53.16.81.21l.82.18.88.17a36.74,36.74,0,0,1,3.6.85c.6.18,1.21.38,1.81.62a16.21,16.21,0,0,1,1.78.86,9.46,9.46,0,0,1,1.66,1.22,6.48,6.48,0,0,1,1.34,1.66,5.44,5.44,0,0,1,.44,1,2.5,2.5,0,0,1,.09.25l.06.26a3,3,0,0,1,.11.52,6.65,6.65,0,0,1,0,2l-.09.48c-.05.16-.09.31-.13.47a7.48,7.48,0,0,1-.33.9c-.12.29-.27.57-.41.85s-.31.54-.49.8c0-.31.07-.62.11-.91l0-.46c0-.15,0-.3,0-.45s0-.59,0-.87v-.43l0-.43a5.57,5.57,0,0,0-.37-1.55,2.07,2.07,0,0,0-.15-.34l-.08-.18-.1-.15a3.67,3.67,0,0,0-.42-.61,7,7,0,0,0-2.44-1.79c-.49-.23-1-.44-1.52-.63-.27-.1-.53-.19-.8-.27l-.82-.26c-1.11-.33-2.26-.62-3.42-1l-.88-.25-.46-.15-.45-.16a9.11,9.11,0,0,1-.91-.37l-.45-.21-.43-.23a11.77,11.77,0,0,1-3-2.39,10.05,10.05,0,0,1-1.14-1.54,8.21,8.21,0,0,1-.44-.83A5.63,5.63,0,0,1,171.45,101.53Z"/><path id="Path_7017" data-name="Path 7017" class="cls-14" d="M176.4,110.18c1.09,1.67,2.07,3.3,3.09,4.87s2.06,3.09,3.18,4.53l.43.52c.15.17.28.36.43.52l.45.51.46.54a13.72,13.72,0,0,1,1,1.18c.16.21.31.41.45.63l.41.66a9.51,9.51,0,0,1,1.15,2.91,5.24,5.24,0,0,1,.09,1.58,3.58,3.58,0,0,1-.15.78l-.06.18a1.42,1.42,0,0,0-.08.18,1.85,1.85,0,0,1-.21.33,2.28,2.28,0,0,0,0-.37c0-.06,0-.12,0-.18l0-.17a3.9,3.9,0,0,0-.18-.67c0-.1-.09-.21-.13-.31a2.92,2.92,0,0,0-.14-.31c-.06-.1-.1-.2-.15-.3s-.12-.19-.18-.29a13.91,13.91,0,0,0-1.62-2.13l-.46-.49-.48-.48c-.31-.32-.66-.63-1-.94l-.53-.52-.54-.54c-.34-.38-.67-.77-1-1.16a20.52,20.52,0,0,1-3.81-8.09c-.1-.49-.19-1-.25-1.47A10.8,10.8,0,0,1,176.4,110.18Z"/><path id="Path_7018" data-name="Path 7018" class="cls-14" d="M176.4,118.83a11.7,11.7,0,0,1,.81,1.14c.25.38.48.78.71,1.18q.66,1.2,1.2,2.46a33.19,33.19,0,0,1,1.71,5.16,30.68,30.68,0,0,1,.78,5.41c0,.23,0,.45,0,.68v1a1.94,1.94,0,0,1,0,.34l0,.69a14.23,14.23,0,0,1-.51,2.74c-.16-.45-.3-.89-.43-1.32l-.09-.33c0-.11-.06-.21-.1-.32s-.13-.43-.19-.65c-.13-.43-.24-.86-.37-1.28-.06-.21-.12-.43-.17-.64s-.12-.43-.17-.64c-.47-1.7-.91-3.39-1.31-5.1s-.78-3.43-1.11-5.18A42.19,42.19,0,0,1,176.4,118.83Z"/><path id="Path_7019" data-name="Path 7019" class="cls-14" d="M178.72,95.29a3,3,0,0,1,.81-.42,5.26,5.26,0,0,1,.89-.22,5.69,5.69,0,0,1,1.84,0,6.57,6.57,0,0,1,1.76.61,7.31,7.31,0,0,1,1.52,1.07,7.67,7.67,0,0,1,2,3c.12.28.19.56.28.84a8.17,8.17,0,0,1,.17.86c0,.3.06.59.07.88a6.8,6.8,0,0,1-.06.9,7.47,7.47,0,0,1-.64-.62q-.3-.3-.57-.6c-.17-.2-.37-.39-.54-.59a3.58,3.58,0,0,1-.26-.29l-.26-.28c-.69-.75-1.33-1.44-2-2.06a14.3,14.3,0,0,0-2.19-1.68,13.73,13.73,0,0,0-1.29-.73C179.75,95.71,179.24,95.49,178.72,95.29Z"/><path id="Path_7020" data-name="Path 7020" class="cls-13" d="M124.37,83.24a36.52,36.52,0,0,0-6.25,2.81,36.94,36.94,0,0,0-5.55,3.82c-.22.17-.42.36-.64.54l-.31.27-.3.29c-.21.19-.42.37-.61.57l-.6.58-.57.61-.28.3-.28.31-.55.62-.52.64c-.18.21-.35.44-.52.65l-.5.66c-.31.46-.64.9-.93,1.37l-.46.69-.43.72-.21.35-.21.37-.44.76c-.3.5-.59,1-.89,1.49l-.9,1.49c-.3.49-.62,1-.93,1.47s-.62,1-1,1.46l-1,1.45-1,1.42c-.7.94-1.41,1.87-2.17,2.77a35.13,35.13,0,0,1-5,5c-.23.19-.48.36-.71.53l-.36.27-.17.13-.19.12c-.5.32-1,.66-1.5.93a20.75,20.75,0,0,1-3.16,1.5c.23-.18.47-.34.71-.51l.35-.25.34-.27.68-.53.66-.55c.44-.36.85-.76,1.27-1.14l.3-.29.3-.31c.2-.2.4-.39.59-.6a47.83,47.83,0,0,0,4.23-5.29q1.93-2.79,3.71-5.72l.89-1.47c.3-.48.59-1,.88-1.47l.87-1.47c.29-.5.57-1,.87-1.49l.43-.74.22-.37.24-.38.47-.77c.16-.26.33-.51.5-.75.33-.5.7-1,1.06-1.46.18-.24.37-.47.57-.7s.38-.46.58-.68l.6-.67c.2-.22.42-.43.63-.65l.31-.32.33-.31c.22-.2.43-.41.66-.61a31.87,31.87,0,0,1,2.81-2.22,29.63,29.63,0,0,1,6.27-3.32,26.2,26.2,0,0,1,3.36-1.06A19.79,19.79,0,0,1,124.37,83.24Z"/><path id="Path_7021" data-name="Path 7021" class="cls-13" d="M114.31,83.24a32,32,0,0,0-9.44,3.1,31,31,0,0,0-7.8,5.71l-.83.88-.21.22c-.07.07-.13.15-.2.23l-.39.45c-.55.6-1,1.27-1.53,1.9l-.71,1-.35.5-.33.52-.67,1-.63,1.07c-.43.7-.8,1.44-1.2,2.17-.21.36-.38.74-.57,1.12l-.56,1.12c-.19.38-.34.77-.52,1.15s-.35.77-.54,1.15q-.48,1.17-1,2.34c.07-.85.18-1.71.31-2.56s.33-1.68.53-2.52l.35-1.25c.12-.42.24-.84.39-1.24l.44-1.23c.15-.4.33-.81.5-1.21s.35-.79.54-1.19l.61-1.17.3-.58.34-.56.7-1.12c.25-.37.51-.72.76-1.08.14-.18.25-.37.4-.53l.41-.52.43-.51.21-.26.23-.24.91-1,1-.91.24-.23.26-.21.51-.43.52-.42.53-.39.54-.39A2.22,2.22,0,0,1,99,87l.29-.18a22.88,22.88,0,0,1,2.3-1.33l.6-.29a6.54,6.54,0,0,1,.6-.28l.61-.25.31-.13.31-.11a23.57,23.57,0,0,1,5.11-1.26,20.49,20.49,0,0,1,2.6-.14A13.89,13.89,0,0,1,114.31,83.24Z"/><path id="Path_7022" data-name="Path 7022" class="cls-11" d="M143,95.53c.7-.51,1.4-1,2.07-1.59a17,17,0,0,0,1.85-1.75,7,7,0,0,0,.76-1,3.12,3.12,0,0,0,.45-1,1.51,1.51,0,0,0,0-.42.9.9,0,0,0-.09-.32,1.75,1.75,0,0,0-.59-.59,5.28,5.28,0,0,0-1-.45,9.5,9.5,0,0,0-1.16-.32,22.79,22.79,0,0,0-2.48-.36,13.51,13.51,0,0,0-2.38,0v9.4l.34-.22C141.52,96.53,142.25,96,143,95.53Z"/><path id="Path_7023" data-name="Path 7023" class="cls-13" d="M138.55,98.42c.64-.25,1.27-.53,1.89-.81v-.38C139.82,97.64,139.19,98,138.55,98.42Z"/><path id="Path_7024" data-name="Path 7024" class="cls-13" d="M132.19,87.59a41.64,41.64,0,0,0-4.83,2.5c-1.55.94-3,2-4.47,3s-2.83,2.21-4.18,3.39-2.64,2.39-3.91,3.65-2.49,2.54-3.67,3.87c-.59.66-1.18,1.33-1.75,2s-1.14,1.36-1.7,2a95.69,95.69,0,0,0-6.21,8.63c-1,1.5-1.86,3-2.7,4.58-.42.78-.83,1.56-1.22,2.35s-.76,1.6-1.1,2.41c.48-.74,1-1.48,1.45-2.2s1-1.45,1.5-2.17q1.55-2.15,3.15-4.21,3.24-4.14,6.74-8c2.35-2.58,4.76-5.09,7.3-7.47,1.26-1.19,2.54-2.36,3.87-3.48s2.66-2.21,4.05-3.24,2.79-2,4.24-2.91c.73-.46,1.46-.88,2.21-1.29s1.5-.79,2.28-1.14A25.59,25.59,0,0,1,138,88.24a16.66,16.66,0,0,1,2.43-.41h.06V85.57a19.84,19.84,0,0,0-3,.35A26.56,26.56,0,0,0,132.19,87.59Z"/><path id="Path_7025" data-name="Path 7025" class="cls-14" d="M142.83,87.82a23.15,23.15,0,0,1,2.48.36,9.35,9.35,0,0,1,1.15.32,5,5,0,0,1,1,.45,1.78,1.78,0,0,1,.6.59,1.16,1.16,0,0,1,.08.32,1.5,1.5,0,0,1,0,.42,3.4,3.4,0,0,1-.46,1,7.84,7.84,0,0,1-.75,1A18.08,18.08,0,0,1,145,93.94c-.66.55-1.36,1.08-2.07,1.59s-1.43,1-2.17,1.48l-.34.22v.38l.54-.24c.79-.38,1.58-.78,2.37-1.21s1.55-.88,2.29-1.37a18.32,18.32,0,0,0,2.17-1.66,9.64,9.64,0,0,0,1-1,4.61,4.61,0,0,0,.78-1.34,2.92,2.92,0,0,0,.17-.88,2.62,2.62,0,0,0-.16-1,2.86,2.86,0,0,0-.21-.43l-.13-.2-.15-.18a3,3,0,0,0-.3-.32l-.32-.26a6.11,6.11,0,0,0-1.34-.75,12.11,12.11,0,0,0-1.36-.47,20.7,20.7,0,0,0-2.71-.57,14.4,14.4,0,0,0-2.62-.15v2.25A13.51,13.51,0,0,1,142.83,87.82Z"/><path id="Path_7026" data-name="Path 7026" class="cls-14" d="M140.91,84.42c2.06-.38,4.11-.7,6.16-.9.51-.06,1-.1,1.53-.13s1-.07,1.53-.09c1,0,2,0,3,0a17.65,17.65,0,0,1,2.89.41,8.57,8.57,0,0,1,2.54,1A3,3,0,0,1,160,88.53a6.93,6.93,0,0,1-.53,1.22c-.1.2-.24.41-.35.62s-.27.39-.4.6-.28.38-.43.57-.31.37-.46.56-.33.36-.49.54l-.53.51a19.58,19.58,0,0,1-5,3.27,30.25,30.25,0,0,1-5.91,2,17.93,17.93,0,0,0,3.19-.13,20.23,20.23,0,0,0,3.17-.64,17.71,17.71,0,0,0,5.92-2.88,14,14,0,0,0,2.44-2.37c.17-.23.36-.45.52-.69a7.5,7.5,0,0,0,.48-.72,8.8,8.8,0,0,0,.8-1.63,6.52,6.52,0,0,0,.41-1.9,5.34,5.34,0,0,0-.29-2.06,5.18,5.18,0,0,0-1.09-1.78A6.46,6.46,0,0,0,160,82.39a11.09,11.09,0,0,0-3.35-1.24,16,16,0,0,0-1.69-.25c-.56-.06-1.11-.1-1.67-.11a30.72,30.72,0,0,0-6.49.63,45.79,45.79,0,0,0-6.19,1.72l-.12,0v1.32Z"/><path id="Path_7027" data-name="Path 7027" class="cls-13" d="M134.72,85.65l3.11-.64,2.61-.51V83.18c-1,.35-1.9.71-2.84,1.12S135.67,85.17,134.72,85.65Z"/><path id="Path_7028" data-name="Path 7028" class="cls-14" d="M140.5,80.91c1.74-.8,3.5-1.54,5.29-2.18a49,49,0,0,1,5.42-1.64c.23-.06.46-.1.69-.15s.45-.11.68-.15c.46-.08.92-.18,1.38-.25.93-.15,1.85-.24,2.78-.3a20.89,20.89,0,0,1,5.47.3,12.57,12.57,0,0,1,4.88,2A8.87,8.87,0,0,1,169,80.29a6.15,6.15,0,0,1,.37.52,3.71,3.71,0,0,1,.33.54c.09.19.18.38.28.57s.15.39.21.59a6.43,6.43,0,0,1,.27,1.23,6,6,0,0,1,0,1.27,9.51,9.51,0,0,1-.55,2.58,13.57,13.57,0,0,1-3,4.57,25.39,25.39,0,0,1-4.46,3.55c-.81.52-1.65,1-2.51,1.45s-1.74.87-2.63,1.25c.47-.11.94-.25,1.4-.4s.93-.31,1.39-.48c.92-.35,1.82-.74,2.71-1.17a23.84,23.84,0,0,0,5-3.25,16.81,16.81,0,0,0,2.11-2.19,12.7,12.7,0,0,0,1.62-2.66,10.86,10.86,0,0,0,.87-3.05,8.27,8.27,0,0,0-.19-3.28c-.07-.27-.16-.53-.25-.79a5.13,5.13,0,0,0-.33-.76c-.12-.25-.25-.49-.38-.74a4.45,4.45,0,0,0-.45-.68,10.63,10.63,0,0,0-2.26-2.33A13,13,0,0,0,165.73,75a16.45,16.45,0,0,0-3-1,19.9,19.9,0,0,0-3.07-.43,24.2,24.2,0,0,0-3.07,0c-1,0-2,.16-3,.31-.5.07-1,.17-1.49.26-.25,0-.5.1-.74.15s-.5.1-.74.17a49.86,49.86,0,0,0-5.73,1.76c-1.5.56-3,1.19-4.43,1.87v2.82Z"/><path id="Path_7029" data-name="Path 7029" class="cls-13" d="M134.19,81.41c-.85.49-1.69,1-2.52,1.53l-1.24.8c-.41.26-.82.54-1.23.82a123.5,123.5,0,0,0-18,15c6.25-4.67,12.54-9.23,19.15-13.21a105.3,105.3,0,0,1,10.1-5.41V78.1l-1,.5Q136.75,79.91,134.19,81.41Z"/><path id="Path_7030" data-name="Path 7030" class="cls-13" d="M134.54,74.92c-1.13.43-2.27.83-3.4,1.2l-.85.27-.86.24-1.73.43a3.34,3.34,0,0,1-.43.1l-.44.09-.88.18-.44.09-.44.07-.88.14a51,51,0,0,1-7.19.59,49.53,49.53,0,0,1-7.3-.46,23.15,23.15,0,0,0,3.55,1.1c1.21.29,2.43.51,3.67.68a39.17,39.17,0,0,0,7.5.19c1.25-.09,2.51-.24,3.75-.45.62-.11,1.24-.22,1.86-.35l.92-.23.92-.24c1.21-.34,2.4-.74,3.57-1.14s2.32-.85,3.47-1.29l1.53-.6V72.68l-2.5.93C136.81,74.06,135.67,74.49,134.54,74.92Z"/><path id="Path_7031" data-name="Path 7031" class="cls-14" d="M142.33,74.81c1.13-.43,2.27-.85,3.4-1.25s2.28-.77,3.42-1.1l.86-.23.44-.12.43-.1.86-.2.88-.18a31.73,31.73,0,0,1,3.51-.43,21.9,21.9,0,0,1,3.53.13l.88.13.43.08.44.1.44.1.43.12.43.13a3.52,3.52,0,0,1,.43.13l.85.31c.15,0,.28.12.42.18l.42.18.42.18.41.21.82.42A15.76,15.76,0,0,0,159.92,70a20.11,20.11,0,0,0-3.78-.6l-.95,0h-1l-.48,0-.48,0c-.32,0-.63,0-1,.08a39,39,0,0,0-7.38,1.59c-1.19.36-2.36.77-3.53,1.18l-1,.36v2.86Z"/><path id="Path_7032" data-name="Path 7032" class="cls-14" d="M140.88,66.31l.48,0,.48,0q1.93.18,3.87.54c1.29.23,2.59.51,3.9.87a12,12,0,0,0-1.68-1.17,19.86,19.86,0,0,0-1.83-1,22.21,22.21,0,0,0-3.9-1.35c-.58-.15-1.17-.27-1.76-.37v2.33Z"/><path id="Path_7033" data-name="Path 7033" class="cls-13" d="M133.94,63.67c-.7,0-1.39.17-2.08.27s-1.37.26-2,.45a24,24,0,0,0-3.92,1.37c-.63.29-1.25.57-1.85.92l-.45.25a5.06,5.06,0,0,0-.44.26l-.86.56-.43.28-.41.3-.82.62c-.26.21-.52.45-.77.67s-.51.46-.75.7c.33-.11.64-.23,1-.35l.47-.18c.15-.06.31-.13.47-.18l.93-.34.47-.18.47-.16.93-.32c.31-.11.62-.2.93-.3l.47-.15.23-.07.23-.07c.31-.09.63-.17.94-.27s.62-.16.94-.24.61-.17.93-.24l.94-.2.24,0,.23,0,.47-.08c.63-.13,1.26-.22,1.89-.32l.95-.11c.32,0,.64-.07.95-.1A37.42,37.42,0,0,1,138,66.2h1c.32,0,.64,0,1,0l.48,0h.05V63.94A24.42,24.42,0,0,0,133.94,63.67Z"/></g></g></svg>