<svg xmlns="http://www.w3.org/2000/svg" xmlns:xlink="http://www.w3.org/1999/xlink" viewBox="0 0 402 268"><defs><style>.cls-1{fill:url(#linear-gradient);}.cls-2{fill:#fff;}.cls-3{fill:url(#linear-gradient-2);}.cls-4{fill:url(#linear-gradient-3);}.cls-5{fill:url(#linear-gradient-4);}.cls-6{fill:url(#linear-gradient-5);}.cls-7{fill:url(#linear-gradient-6);}.cls-8{fill:url(#linear-gradient-7);}</style><linearGradient id="linear-gradient" x1="0.04" y1="135.75" x2="400.04" y2="135.75" gradientUnits="userSpaceOnUse"><stop offset="0" stop-color="#008ad0"/><stop offset="1" stop-color="#005a75"/></linearGradient><linearGradient id="linear-gradient-2" x1="165.98" y1="187.37" x2="227.58" y2="187.37" xlink:href="#linear-gradient"/><linearGradient id="linear-gradient-3" x1="151.72" y1="171.89" x2="244.16" y2="171.89" xlink:href="#linear-gradient"/><linearGradient id="linear-gradient-4" x1="134.34" y1="149.69" x2="266.58" y2="149.69" xlink:href="#linear-gradient"/><linearGradient id="linear-gradient-5" x1="98.94" y1="115.28" x2="302" y2="115.28" xlink:href="#linear-gradient"/><linearGradient id="linear-gradient-6" x1="188.38" y1="217.93" x2="205.17" y2="217.93" xlink:href="#linear-gradient"/><linearGradient id="linear-gradient-7" x1="177.18" y1="201.9" x2="216.37" y2="201.9" xlink:href="#linear-gradient"/></defs><g id="Wider"><path class="cls-1" d="M70,268.32c-16.22-4.11-31.47-15.54-43.47-27.77A91.87,91.87,0,0,1,0,175.79,92.8,92.8,0,0,1,58.49,89.85a.8.8,0,0,0,.51-.64A74.51,74.51,0,0,1,173.33,36.88a.82.82,0,0,0,1.08-.16A92.5,92.5,0,0,1,337.86,88a.8.8,0,0,0,.54.7,92.41,92.41,0,0,1-30.77,179.55S70.07,268.34,70,268.32Z"/><path class="cls-2" d="M92,242c-37.29-.71-67.63-31.64-67.63-69a69.16,69.16,0,0,1,55-67.53,4.3,4.3,0,0,0,3.41-4.58c-.12-1.45-.18-2.9-.18-4.3a51,51,0,0,1,93.6-28.14,3.51,3.51,0,0,0,2.93,1.68,3.43,3.43,0,0,0,3.18-2.33,69,69,0,0,1,133.25,25,70.33,70.33,0,0,1-.41,7.42,4.16,4.16,0,0,0,3.54,4.58A69,69,0,0,1,308.52,242H134.4C132.85,242,93.15,242,92,242Z"/><path class="cls-3" d="M166,191.21l5.6,6c13.91-14.95,36.47-14.95,50.39,0l5.61-6C210.58,172.93,183,172.93,166,191.21Z"/><path class="cls-4" d="M151.72,177.39l8.41,8.62a52.54,52.54,0,0,1,75.62,0l8.41-8.62A64.27,64.27,0,0,0,151.72,177.39Z"/><path class="cls-5" d="M134.34,157.61l12,12.41a74.84,74.84,0,0,1,108.19,0l12-12.41C230.1,120,170.89,120,134.34,157.61Z"/><path class="cls-6" d="M98.94,127.6l18.46,19.3C163.27,99,237.66,99,283.54,146.9L302,127.6C246,69,155.06,69,98.94,127.6Z"/><path class="cls-7" d="M188.38,215.29l8.4,9,8.39-9A11.27,11.27,0,0,0,188.38,215.29Z"/><path class="cls-8" d="M177.18,203.25l5.6,6a18.83,18.83,0,0,1,28,0l5.6-6A26.39,26.39,0,0,0,177.18,203.25Z"/></g></svg>